<svg aria-hidden="true" style="width:0;height:0;position:absolute;overflow:hidden" xmlns="http://www.w3.org/2000/svg"><defs><symbol id="icon-ruby" viewBox="0 0 32 32"><path fill="#fff" style="fill:var(--color1,#fff)" d="M30.933 30.933V32H32v-1.067h-1.067zm0-29.866H32V0h-1.067v1.067zm-12.8 0V0h-.442l-.314.311.755.755zM1.067 18.133l-.755-.755-.311.314v.442h1.067zm0 12.8H0V32h1.067v-1.067zM9.6 22.4l-.478.954.041.021.043.015.395-.99zm0-12.8V8.533a1.066 1.066 0 0 0-1.066 1.066h1.067zm12.8 0 .99-.397-.017-.041-.019-.041-.954.478zM32 30.933V1.066h-2.133v29.867H32zM30.933 0h-12.8v2.133h12.8V0zM17.378.311.311 17.378l1.51 1.51L18.888 1.821l-1.51-1.51zM0 18.133v12.8h2.133v-12.8H0zM1.067 32h29.867v-2.133H1.067V32zM30.178.311.311 30.178l1.51 1.51L31.688 1.821l-1.51-1.51zM10.667 22.4V9.6H8.534v12.8h2.133zM9.6 10.667h12.8V8.534H9.6v2.133zM9.203 23.39l21.333 8.533.794-1.98L9.997 21.41l-.794 1.98zM21.41 9.997l8.533 21.333 1.98-.794L23.39 9.203l-1.98.794zm-4.23-8.452 4.267 8.533 1.907-.956L19.087.589l-1.907.956zM.589 19.087l8.533 4.267.956-1.907-8.533-4.267-.956 1.907z"/></symbol><symbol id="icon-carbon_delivery" viewBox="0 0 34 32"><path fill="#fff" style="fill:var(--color1,#fff)" d="M33.43 7.157 21.172.852a1.294 1.294 0 0 0-1.182 0L7.732 7.157c-.192.099-.352.244-.464.421a1.087 1.087 0 0 0 0 1.166c.111.176.272.322.464.421l11.623 5.979v12.288l-3.722-1.915-1.182 2.007 5.538 2.849a1.294 1.294 0 0 0 1.182 0l12.258-6.305c.192-.099.353-.244.464-.421s.171-.378.171-.583V8.161c0-.205-.059-.407-.171-.583s-.272-.322-.464-.421zM20.58 3.165l9.715 4.996-9.715 4.996-9.715-4.996 9.715-4.996zm11.033 19.222-9.807 5.044V15.143l9.807-5.044v12.288z"/><path fill="#fff" style="fill:var(--color1,#fff)" d="M9.935 15.755H0v-2.271h9.935v2.271zm2.484 9.084H2.484v-2.271h9.935v2.271zm2.484-4.542H4.968v-2.271h9.935v2.271z"/></symbol><symbol id="icon-award" viewBox="0 0 32 32"><path fill="none" stroke="#fff" style="stroke:var(--color1,#fff)" stroke-width="1.778" d="m11.556 15.308 3.275 3.486 5.614-6.349"/><path fill="none" stroke="#fff" style="stroke:var(--color1,#fff)" stroke-width="1.778" d="M16 8a8 8 0 1 1 0 16 8 8 0 0 1 0-16z"/><path fill="none" stroke="#fff" style="stroke:var(--color1,#fff)" stroke-width="1.778" d="m11.707 30.222-2.236-4.68-4.92-.826.716-5.23-3.488-4.221 3.488-3.303-.716-5.23 4.92-.826 2.236-4.129 4.741 2.019 4.115-2.019 2.773 4.955 4.294.642-.805 4.588 3.399 3.945-3.399 3.579.805 5.23-4.294.826-2.773 4.68-4.741-2.294-4.115 2.294z"/></symbol><symbol id="icon-logo" viewBox="0 0 32 32"><path fill="#3b4d7c" style="fill:var(--color2,#3b4d7c)" d="M16 0c8.835 0 16 7.165 16 16s-7.165 16-16 16S0 24.835 0 16 7.165 0 16 0z"/><path fill="none" stroke="#fff" style="stroke:var(--color1,#fff)" stroke-miterlimit="10" stroke-width=".48" d="M1.411 12.016C3.158 5.565 9.053.822 16.057.822M30.672 20.077c-1.782 6.394-7.651 11.088-14.614 11.088C9.079 31.162 3.2 26.451 1.431 20.032M16.058.822c7.014 0 12.915 4.758 14.653 11.222"/><path fill="#fff" style="fill:var(--color1,#fff)" d="M21.216 18.832a2.357 2.357 0 0 1-.413-.579c-.65-1.267-.25-2.726.605-3.846.742-.003 1.491 0 2.237 0-.602.765-.954 1.962-.998 2.666-.038.64.106 1.2.637 1.338.56.147 1.222-.115 1.789-.701.643-.666.96-1.402.989-2.352.019-.64-.154-1.27-.659-1.533-.016-.006-.029-.016-.045-.022-.227-.102-.47-.106-.746-.106h-.042c-.899 0-5.078 0-5.078-.003.022-.051.579-1.254.64-1.28H24.971c.88 0 1.763.214 2.426.822 2.003 1.834.218 5.382-2.8 6.192-1.107.301-2.531.272-3.379-.595zm-5.155-2.099-.374 1.037 3.523.003.374-1.037-3.523-.003zm-1.495-1.331h.41l-.941 3.83h-.368l-.003-.016-1.059-2.246-.57 2.234-1.242.016.938-3.824 1.254-.016-.15.589 1.059 2.147.672-2.714zm-4.841.012 1.264.003-.96 3.818-1.264-.003.96-3.818zm-6.311-1.782-2.304-.019.614-1.222h5.434c.656 0 1.446.051 2.016.406.835.518.928 1.395.48 2.198-.874 1.565-3.44 2.688-5.248 2.726L3.9 19.577l-1.766.016 1.414-5.194h1.75a52.132 52.132 0 0 0-.592 2.218c2.768-.083 3.734-2.154 2.381-2.752-.672-.298-1.99-.25-2.784-.246l-.89.006v.006zm25.952 4.95 1.616.01-.147.634h-2.892l1.059-4.109 1.226-.01-.861 3.475zM29.293 20.394h.214l-.118.877h-.214l.118-.877zm.144-.359c.035 0 .067.013.093.038s.038.058.038.093c0 .035-.013.067-.038.093s-.058.038-.093.038c-.035 0-.067-.013-.093-.038s-.038-.058-.038-.093c0-.035.013-.067.038-.093s.058-.038.093-.038zm-1.008 1.235h-.221l.118-.877h.221l-.042.317h.317l.042-.317h.221l-.118.877h-.221l.048-.365h-.317l-.048.365zm-.218-1.238c.029 0 .051.01.07.029s.029.042.029.067c0 .038-.013.07-.038.096s-.058.038-.093.038a.099.099 0 0 1-.103-.103c0-.035.013-.064.038-.09a.14.14 0 0 1 .096-.038zm-.355 0c.029 0 .051.01.07.029s.029.042.029.067c0 .038-.013.07-.038.096s-.058.038-.093.038a.099.099 0 0 1-.103-.103c0-.035.013-.064.042-.09a.128.128 0 0 1 .093-.038zm.048.362h.214l-.118.877h-.214l.118-.877zm-.742.707c.054 0 .099-.013.138-.035s.074-.061.099-.112a.34.34 0 0 0 .042-.154c0-.07-.019-.125-.061-.166s-.093-.064-.16-.064a.266.266 0 0 0-.195.083.302.302 0 0 0-.08.218c0 .067.019.125.061.166a.201.201 0 0 0 .157.064zm.323-.707h.218l-.122.877h-.214l.013-.096c-.048.045-.09.074-.131.09s-.086.026-.138.026a.34.34 0 0 1-.278-.128.474.474 0 0 1-.102-.298.504.504 0 0 1 .243-.428.434.434 0 0 1 .23-.067.304.304 0 0 1 .262.147l.019-.122zm-1.319.172a.291.291 0 0 0-.138.035.29.29 0 0 0-.099.112.334.334 0 0 0-.038.154c0 .067.019.125.061.166a.206.206 0 0 0 .157.064.255.255 0 0 0 .192-.083.316.316 0 0 0 .08-.218.224.224 0 0 0-.061-.166.19.19 0 0 0-.154-.064zm-.361 1.024h-.214l.163-1.197h.214l-.013.096c.045-.045.09-.077.128-.093s.086-.026.134-.026c.115 0 .208.042.275.128s.102.186.102.298a.507.507 0 0 1-.24.428.437.437 0 0 1-.227.064.295.295 0 0 1-.259-.147l-.064.448zM24.8 20.394h.221l-.048.346.358-.346h.275l-.442.419.358.458h-.282l-.246-.32-.061.051-.035.266h-.221l.122-.874zm-.806.604-.294-.912h.253l.192.662.317-.662h.234l-.432.848c-.077.154-.147.253-.208.298s-.131.067-.214.067c-.122 0-.224-.058-.307-.173l.166-.15c.032.042.061.07.083.083a.187.187 0 0 0 .086.019c.045.003.086-.026.125-.08zm-1.517.112h.109c.102 0 .15-.032.15-.099 0-.074-.048-.112-.144-.112h-.086l-.029.211zm.051-.361h.099c.029 0 .058-.01.08-.029a.086.086 0 0 0 .035-.074c0-.061-.038-.093-.115-.093h-.074l-.026.195zm-.291.521.118-.877h.339c.086 0 .154.022.198.064s.067.093.067.15c0 .096-.054.16-.163.192.115.045.173.122.173.224 0 .163-.115.246-.349.246h-.384zm-1.047-.691c-.09 0-.157.032-.202.096a.33.33 0 0 0-.07.205c0 .064.019.118.058.157.038.042.09.061.154.061.09 0 .16-.032.208-.093s.07-.131.07-.208a.21.21 0 0 0-.061-.157.204.204 0 0 0-.157-.061zm.016-.205c.077 0 .147.019.211.054s.112.086.15.154a.472.472 0 0 1 .054.221.465.465 0 0 1-.147.349.493.493 0 0 1-.362.144.403.403 0 0 1-.298-.112.404.404 0 0 1-.112-.294c0-.147.051-.269.15-.365a.479.479 0 0 1 .352-.15zm-1.286.896h-.221l.118-.877h.221l-.045.317h.317l.045-.317h.221l-.118.877h-.221l.051-.365h-.317l-.051.365zm-.563-.531a.245.245 0 0 0-.08-.122.218.218 0 0 0-.138-.042.26.26 0 0 0-.144.042.268.268 0 0 0-.096.118h.458v.003zm-.055.275.189.099c-.042.054-.099.099-.17.131s-.147.048-.234.048c-.134 0-.24-.038-.317-.112s-.115-.176-.115-.298c0-.141.048-.262.144-.362s.214-.147.349-.147a.408.408 0 0 1 .375.211.45.45 0 0 1 .054.224c0 .026-.003.054-.006.09h-.701a.208.208 0 0 0 .061.147c.038.035.09.054.157.054a.36.36 0 0 0 .214-.086zm-.777.256h-.23l-.141-.531-.288.531h-.23l.493-.877h.141l.256.877zm-1.127-.486a.218.218 0 0 0-.054-.147c-.035-.038-.086-.058-.154-.058-.077 0-.141.029-.195.086s-.08.125-.08.202c0 .067.019.122.058.16s.09.058.147.058a.267.267 0 0 0 .195-.086.302.302 0 0 0 .083-.214zm.272-.749-.029.202c-.058.01-.138.013-.237.013-.096 0-.17.003-.218.013s-.093.029-.134.058a.294.294 0 0 0-.096.106.728.728 0 0 0-.054.176c.086-.154.205-.227.355-.227.099 0 .182.032.256.099s.112.16.112.278c0 .15-.051.275-.154.381s-.23.157-.378.157c-.083 0-.157-.019-.218-.061s-.106-.09-.138-.15a.551.551 0 0 1-.045-.253c0-.144.016-.266.051-.368s.08-.186.134-.246a.417.417 0 0 1 .221-.128c.09-.026.23-.038.419-.038.054 0 .102-.003.15-.01zm-1.587.544c-.09 0-.157.032-.202.096a.33.33 0 0 0-.07.205c0 .064.019.118.058.157.038.042.09.061.154.061.09 0 .16-.032.208-.093s.07-.131.07-.208a.21.21 0 0 0-.061-.157.204.204 0 0 0-.157-.061zm.016-.205c.077 0 .147.019.211.054s.112.086.15.154a.472.472 0 0 1 .054.221.465.465 0 0 1-.147.349.493.493 0 0 1-.362.144.403.403 0 0 1-.298-.112.404.404 0 0 1-.112-.294c0-.147.051-.269.15-.365a.479.479 0 0 1 .352-.15zm-1.069.192a.291.291 0 0 0-.138.035.29.29 0 0 0-.099.112.334.334 0 0 0-.038.154c0 .067.019.125.061.166a.206.206 0 0 0 .157.064.255.255 0 0 0 .192-.083.316.316 0 0 0 .08-.218.224.224 0 0 0-.061-.166.199.199 0 0 0-.154-.064zm-.361 1.024h-.214l.163-1.197h.214l-.013.096c.045-.045.09-.077.128-.093s.086-.026.134-.026c.115 0 .208.042.275.128s.102.186.102.298a.507.507 0 0 1-.24.428.437.437 0 0 1-.227.064.295.295 0 0 1-.259-.147l-.064.448zm-.848-1.126a.41.41 0 0 1 .259-.09c.083 0 .15.019.198.061a.188.188 0 0 1 .074.16c0 .042-.01.077-.029.112-.019.032-.061.061-.122.09.086.054.131.125.131.218 0 .083-.029.15-.09.202-.058.051-.147.077-.262.077-.138 0-.24-.032-.31-.099l.144-.154a.234.234 0 0 0 .144.058c.038 0 .07-.01.096-.029s.038-.042.038-.064-.01-.045-.029-.067-.045-.035-.077-.035h-.058l.022-.157h.045c.038 0 .067-.01.09-.029s.032-.042.032-.07c0-.026-.01-.045-.026-.061s-.038-.022-.064-.022a.294.294 0 0 0-.144.051l-.064-.15z"/></symbol><symbol id="icon-tools" viewBox="0 0 32 32"><path fill="#fff" style="fill:var(--color1,#fff)" d="m3.852.756-.667.611-1.666 1.618-.629.648.481.755 2.482 4.028.333.575h3.483l4.741 4.568c-4.236 4.131-9.625 9.381-9.815 9.566-1.857 1.802-1.861 4.755.036 6.473 1.852 1.775 4.871 1.821 6.631 0l.036-.037 7.296-7.12 7.334 7.156.11.072c1.861 1.703 4.82 1.726 6.556-.072v-.035h.036c1.816-1.803 1.835-4.734-.036-6.439l-.038-.035-6.184-5.97c4.161-.377 7.42-3.79 7.481-7.912h.037c.005-.023 0-.049 0-.072v-.036c.116-1.33-.18-2.603-.889-3.704l-.813-1.221-5.519 5.358-1.666-1.691 5.63-5.466-1.63-.647a8.555 8.555 0 0 0-3.297-.685c-4.556 0-8.296 3.632-8.296 8.056 0 .481.107.899.185 1.33-.518.504-.907.917-1.518 1.511L9.373 7.371V3.954l-.593-.323-4.148-2.41-.777-.467zm19.852 2.589c.166 0 .282.094.444.108l-4.481 4.351.814.827 3.334 3.344.814.827 4.704-4.567c.024.265.218.458.185.755v.108c0 3.169-2.662 5.754-5.926 5.754-.435 0-.962-.099-1.555-.216l-.631-.107-.444.432L7.593 27.979h-.038v.037c-.841.894-2.315.916-3.296-.037v-.036h-.038c-.921-.817-.943-2.247.038-3.2.449-.437 9.147-8.955 13.407-13.09l.482-.467-.186-.648a6.908 6.908 0 0 1-.185-1.438c0-3.169 2.662-5.754 5.926-5.754zm-19.482.288L7 5.288v1.151l-.258.251H5.557L3.853 3.994l.37-.36zm17.333 13.989 7.372 7.121v.036h.036c.922.817.945 2.248-.036 3.2h-.038v.037c-.841.894-2.315.916-3.296-.037l-7.334-7.156 3.296-3.202z"/></symbol></defs></svg>