<svg aria-hidden="true" style="width:0;height:0;position:absolute;overflow:hidden" xmlns="http://www.w3.org/2000/svg"><defs><symbol id="icon-logo" viewBox="0 0 32 32"><path fill="#3b4d7c" style="fill:var(--color1,#3b4d7c)" d="M16 0c8.835 0 16 7.165 16 16s-7.165 16-16 16S0 24.835 0 16 7.165 0 16 0z"/><path fill="none" stroke="#fff" style="stroke:var(--color2,#fff)" stroke-miterlimit="10" stroke-width=".48" d="M1.411 12.016C3.158 5.565 9.053.822 16.057.822M30.672 20.077c-1.782 6.394-7.651 11.088-14.614 11.088C9.079 31.162 3.2 26.451 1.431 20.032M16.058.822c7.014 0 12.915 4.758 14.653 11.222"/><path fill="#fff" style="fill:var(--color2,#fff)" d="M21.216 18.832a2.357 2.357 0 0 1-.413-.579c-.65-1.267-.25-2.726.605-3.846.742-.003 1.491 0 2.237 0-.602.765-.954 1.962-.998 2.666-.038.64.106 1.2.637 1.338.56.147 1.222-.115 1.789-.701.643-.666.96-1.402.989-2.352.019-.64-.154-1.27-.659-1.533-.016-.006-.029-.016-.045-.022-.227-.102-.47-.106-.746-.106h-.042c-.899 0-5.078 0-5.078-.003.022-.051.579-1.254.64-1.28H24.971c.88 0 1.763.214 2.426.822 2.003 1.834.218 5.382-2.8 6.192-1.107.301-2.531.272-3.379-.595zm-5.155-2.099-.374 1.037 3.523.003.374-1.037-3.523-.003zm-1.495-1.331h.41l-.941 3.83h-.368l-.003-.016-1.059-2.246-.57 2.234-1.242.016.938-3.824 1.254-.016-.15.589 1.059 2.147.672-2.714zm-4.841.012 1.264.003-.96 3.818-1.264-.003.96-3.818zm-6.311-1.782-2.304-.019.614-1.222h5.434c.656 0 1.446.051 2.016.406.835.518.928 1.395.48 2.198-.874 1.565-3.44 2.688-5.248 2.726L3.9 19.577l-1.766.016 1.414-5.194h1.75a52.132 52.132 0 0 0-.592 2.218c2.768-.083 3.734-2.154 2.381-2.752-.672-.298-1.99-.25-2.784-.246l-.89.006v.006zm25.952 4.95 1.616.01-.147.634h-2.892l1.059-4.109 1.226-.01-.861 3.475zM29.293 20.394h.214l-.118.877h-.214l.118-.877zm.144-.359c.035 0 .067.013.093.038s.038.058.038.093c0 .035-.013.067-.038.093s-.058.038-.093.038c-.035 0-.067-.013-.093-.038s-.038-.058-.038-.093c0-.035.013-.067.038-.093s.058-.038.093-.038zm-1.008 1.235h-.221l.118-.877h.221l-.042.317h.317l.042-.317h.221l-.118.877h-.221l.048-.365h-.317l-.048.365zm-.218-1.238c.029 0 .051.01.07.029s.029.042.029.067c0 .038-.013.07-.038.096s-.058.038-.093.038a.099.099 0 0 1-.103-.103c0-.035.013-.064.038-.09a.14.14 0 0 1 .096-.038zm-.355 0c.029 0 .051.01.07.029s.029.042.029.067c0 .038-.013.07-.038.096s-.058.038-.093.038a.099.099 0 0 1-.103-.103c0-.035.013-.064.042-.09a.128.128 0 0 1 .093-.038zm.048.362h.214l-.118.877h-.214l.118-.877zm-.742.707c.054 0 .099-.013.138-.035s.074-.061.099-.112a.34.34 0 0 0 .042-.154c0-.07-.019-.125-.061-.166s-.093-.064-.16-.064a.266.266 0 0 0-.195.083.302.302 0 0 0-.08.218c0 .067.019.125.061.166a.201.201 0 0 0 .157.064zm.323-.707h.218l-.122.877h-.214l.013-.096c-.048.045-.09.074-.131.09s-.086.026-.138.026a.34.34 0 0 1-.278-.128.474.474 0 0 1-.102-.298.504.504 0 0 1 .243-.428.434.434 0 0 1 .23-.067.304.304 0 0 1 .262.147l.019-.122zm-1.319.172a.291.291 0 0 0-.138.035.29.29 0 0 0-.099.112.334.334 0 0 0-.038.154c0 .067.019.125.061.166a.206.206 0 0 0 .157.064.255.255 0 0 0 .192-.083.316.316 0 0 0 .08-.218.224.224 0 0 0-.061-.166.19.19 0 0 0-.154-.064zm-.361 1.024h-.214l.163-1.197h.214l-.013.096c.045-.045.09-.077.128-.093s.086-.026.134-.026c.115 0 .208.042.275.128s.102.186.102.298a.507.507 0 0 1-.24.428.437.437 0 0 1-.227.064.295.295 0 0 1-.259-.147l-.064.448zM24.8 20.394h.221l-.048.346.358-.346h.275l-.442.419.358.458h-.282l-.246-.32-.061.051-.035.266h-.221l.122-.874zm-.806.604-.294-.912h.253l.192.662.317-.662h.234l-.432.848c-.077.154-.147.253-.208.298s-.131.067-.214.067c-.122 0-.224-.058-.307-.173l.166-.15c.032.042.061.07.083.083a.187.187 0 0 0 .086.019c.045.003.086-.026.125-.08zm-1.517.112h.109c.102 0 .15-.032.15-.099 0-.074-.048-.112-.144-.112h-.086l-.029.211zm.051-.361h.099c.029 0 .058-.01.08-.029a.086.086 0 0 0 .035-.074c0-.061-.038-.093-.115-.093h-.074l-.026.195zm-.291.521.118-.877h.339c.086 0 .154.022.198.064s.067.093.067.15c0 .096-.054.16-.163.192.115.045.173.122.173.224 0 .163-.115.246-.349.246h-.384zm-1.047-.691c-.09 0-.157.032-.202.096a.33.33 0 0 0-.07.205c0 .064.019.118.058.157.038.042.09.061.154.061.09 0 .16-.032.208-.093s.07-.131.07-.208a.21.21 0 0 0-.061-.157.204.204 0 0 0-.157-.061zm.016-.205c.077 0 .147.019.211.054s.112.086.15.154a.472.472 0 0 1 .054.221.465.465 0 0 1-.147.349.493.493 0 0 1-.362.144.403.403 0 0 1-.298-.112.404.404 0 0 1-.112-.294c0-.147.051-.269.15-.365a.479.479 0 0 1 .352-.15zm-1.286.896h-.221l.118-.877h.221l-.045.317h.317l.045-.317h.221l-.118.877h-.221l.051-.365h-.317l-.051.365zm-.563-.531a.245.245 0 0 0-.08-.122.218.218 0 0 0-.138-.042.26.26 0 0 0-.144.042.268.268 0 0 0-.096.118h.458v.003zm-.055.275.189.099c-.042.054-.099.099-.17.131s-.147.048-.234.048c-.134 0-.24-.038-.317-.112s-.115-.176-.115-.298c0-.141.048-.262.144-.362s.214-.147.349-.147a.408.408 0 0 1 .375.211.45.45 0 0 1 .054.224c0 .026-.003.054-.006.09h-.701a.208.208 0 0 0 .061.147c.038.035.09.054.157.054a.36.36 0 0 0 .214-.086zm-.777.256h-.23l-.141-.531-.288.531h-.23l.493-.877h.141l.256.877zm-1.127-.486a.218.218 0 0 0-.054-.147c-.035-.038-.086-.058-.154-.058-.077 0-.141.029-.195.086s-.08.125-.08.202c0 .067.019.122.058.16s.09.058.147.058a.267.267 0 0 0 .195-.086.302.302 0 0 0 .083-.214zm.272-.749-.029.202c-.058.01-.138.013-.237.013-.096 0-.17.003-.218.013s-.093.029-.134.058a.294.294 0 0 0-.096.106.728.728 0 0 0-.054.176c.086-.154.205-.227.355-.227.099 0 .182.032.256.099s.112.16.112.278c0 .15-.051.275-.154.381s-.23.157-.378.157c-.083 0-.157-.019-.218-.061s-.106-.09-.138-.15a.551.551 0 0 1-.045-.253c0-.144.016-.266.051-.368s.08-.186.134-.246a.417.417 0 0 1 .221-.128c.09-.026.23-.038.419-.038.054 0 .102-.003.15-.01zm-1.587.544c-.09 0-.157.032-.202.096a.33.33 0 0 0-.07.205c0 .064.019.118.058.157.038.042.09.061.154.061.09 0 .16-.032.208-.093s.07-.131.07-.208a.21.21 0 0 0-.061-.157.204.204 0 0 0-.157-.061zm.016-.205c.077 0 .147.019.211.054s.112.086.15.154a.472.472 0 0 1 .054.221.465.465 0 0 1-.147.349.493.493 0 0 1-.362.144.403.403 0 0 1-.298-.112.404.404 0 0 1-.112-.294c0-.147.051-.269.15-.365a.479.479 0 0 1 .352-.15zm-1.069.192a.291.291 0 0 0-.138.035.29.29 0 0 0-.099.112.334.334 0 0 0-.038.154c0 .067.019.125.061.166a.206.206 0 0 0 .157.064.255.255 0 0 0 .192-.083.316.316 0 0 0 .08-.218.224.224 0 0 0-.061-.166.199.199 0 0 0-.154-.064zm-.361 1.024h-.214l.163-1.197h.214l-.013.096c.045-.045.09-.077.128-.093s.086-.026.134-.026c.115 0 .208.042.275.128s.102.186.102.298a.507.507 0 0 1-.24.428.437.437 0 0 1-.227.064.295.295 0 0 1-.259-.147l-.064.448zm-.848-1.126a.41.41 0 0 1 .259-.09c.083 0 .15.019.198.061a.188.188 0 0 1 .074.16c0 .042-.01.077-.029.112-.019.032-.061.061-.122.09.086.054.131.125.131.218 0 .083-.029.15-.09.202-.058.051-.147.077-.262.077-.138 0-.24-.032-.31-.099l.144-.154a.234.234 0 0 0 .144.058c.038 0 .07-.01.096-.029s.038-.042.038-.064-.01-.045-.029-.067-.045-.035-.077-.035h-.058l.022-.157h.045c.038 0 .067-.01.09-.029s.032-.042.032-.07c0-.026-.01-.045-.026-.061s-.038-.022-.064-.022a.294.294 0 0 0-.144.051l-.064-.15z"/></symbol><symbol id="icon-viber" viewBox="0 0 32 32"><path fill="#52648c" style="fill:var(--color2,#52648c);stroke:var(--color1,#243b76)" stroke="#243b76" stroke-width="1.067" d="m16.89 10.239.014.002c2.185.271 3.945 2.228 3.957 4.331l-.001.021-.001.007-.002.026c-.006.08-.006.161-.001.241.002.06.003.111 0 .162a.486.486 0 0 1-.019.111l-.004.009a.209.209 0 0 1-.047.012l-.01.002a.37.37 0 0 1-.109.001l-.005-.009a.487.487 0 0 1-.035-.127 1.751 1.751 0 0 1-.018-.186v-.005c-.003-.064-.007-.161-.022-.251-.187-1.164-.486-2.057-1.102-2.72s-1.479-1.021-2.615-1.283a1.919 1.919 0 0 0-.24-.042 1.545 1.545 0 0 1-.272-.055.189.189 0 0 1-.062-.031.167.167 0 0 1-.015-.109l.003-.015.002-.015c.004-.026.011-.052.019-.074s.017-.033.021-.039c.003-.003.005-.005.012-.008s.033-.013.089-.014c.093.003.185.014.277.032l.012.002.012.002.161.024zm3.94 4.914v-.001.001zm.006-.006.002-.001-.002.001zm-.18.013.002.001-.002-.001z"/><path fill="none" stroke="#243b76" style="stroke:var(--color1,#243b76)" stroke-width="1.067" d="M16.329 8.296h.002l.01.001c.057.004.141.011.214.022m-.226-.023 6.647 7.286a.103.103 0 0 1-.035.006l-.014-.001H22.9a.214.214 0 0 1-.069-.01.24.24 0 0 1-.012-.022c-.014-.031-.026-.08-.034-.15s-.009-.138-.011-.213v-.002l-.001-.03c-.001-.066-.002-.165-.013-.251-.239-1.95-.799-3.463-1.835-4.564-1.038-1.104-2.49-1.726-4.372-2.025m-.224-.024c-.068-.005-.129-.01-.188-.02s-.097-.024-.118-.034a.463.463 0 0 1 .015-.151.183.183 0 0 1 .024-.056.041.041 0 0 1 .017-.013.336.336 0 0 1 .131-.021c.049.001.098.003.147.007l.013.001.01.001c.041.003.103.007.157.007h.001m-.209.279.21-.28m.015.303h-.001l-.084.527.085-.527h-.001zm-.015-.303c.028 0 .056-.002.084-.004h.004c3.423.129 6.437 3.369 6.397 6.949-.002.072.002.148.005.201v.008c.006.135.008.229-.004.309a.21.21 0 0 1-.026.089m-6.46-7.552L23 15.567m-3.436 8.918-.012-.003c-.18-.042-.422-.098-.652-.2l.664.203zm0 0zm1.036-5.744-.312.432.047.034c.394.285.785.567 1.15.87l.001.001.037.03v.004l.203.16c.306.241.55.441.696.686.122.206.193.476.042.914-.188.548-.6 1.089-1.116 1.494-.513.403-1.07.626-1.526.632l-.137-.034c-.188-.044-.387-.09-.568-.171-2.562-1.139-4.765-2.65-6.552-4.488-1.827-1.877-3.279-4.158-4.314-6.783v-.001c-.326-.824-.323-1.564-.054-2.168.278-.624.849-1.133 1.715-1.434l.011-.004c.242-.09.509-.089.751.002.03.011.103.051.221.146.113.091.244.215.388.367.288.304.606.698.903 1.116s.567.851.762 1.227c.208.402.292.666.297.776v.001c.027.507-.329.786-.681 1.031-.366.257-.646.589-.741 1.034-.091.428.009.867.196 1.302v.001c.743 1.723 2.044 3.023 3.835 3.864.244.122.511.19.783.2h.018c.51 0 .894-.28 1.155-.687.37-.578.744-.769 1.099-.769.29 0 .65.121 1.123.462l.312-.432m.256.185-.311.433-.256-.185.313-.432m.254.184-.255-.184m.255.184.052.037c.39.282.794.573 1.174.888l-4.463-.658m2.982-.451c-.522-.377-.992-.563-1.435-.563-.597 0-1.117.342-1.548 1.014m0 .001c-.19.297-.422.442-.706.442l.706-.442zm-.512-6.58h-.002a.695.695 0 0 0-.24.031.117.117 0 0 0-.039.023.147.147 0 0 0-.032.059.317.317 0 0 0-.019.12v.001l.003.003c.002.001.011.009.029.017a.807.807 0 0 0 .201.052h.002c.497.082.933.277 1.255.635.319.355.475.813.524 1.323m-1.682-2.264 1.152 2.316m-1.152-2.316c.363-.009.842.193 1.283.657l.001.001c.437.458.657.997.652 1.416v.022c.007.228-.034.324-.052.352-.006.01-.009.011-.011.012a.168.168 0 0 1-.056.016m-1.817-2.476 1.67.289c.508.532.806 1.2.8 1.79.018.564-.181.876-.592.927m-.195-.741v.001l-.531.051m.531-.052v-.001l-.531.052m.531-.051c.01.104.046.163.07.188.02.021.034.024.048.024h.017m-.666-.161c.04.41.306.693.648.693a.652.652 0 0 0 .077-.003m-.059-.53-.007.001v.002l.066.527m-.059-.53h.004l.056.53m4.271.132a.109.109 0 0 1-.023.014l.023-.014zm-.171.007.002.001-.002-.001zm-6.802-7.319-.001-.002.001.002z"/><path fill="none" stroke="#243b76" style="stroke:var(--color1,#243b76)" stroke-width="1.067" d="M16 .533C24.542.533 31.467 7.458 31.467 16S24.542 31.467 16 31.467C7.458 31.467.533 24.542.533 16S7.458.533 16 .533z"/></symbol><symbol id="icon-arrow-side" viewBox="0 0 52 32"><path fill="none" stroke="#243b76" style="stroke:var(--color1,#243b76)" stroke-width="2.909" d="M0 15.072h49.455m0 0L37.927 2.909m11.528 12.163L37.927 29.091"/></symbol><symbol id="icon-facebook" viewBox="0 0 33 32"><path fill="#243b76" style="fill:var(--color1,#243b76)" d="M19.494 7.019h-2.662c-3.391-.034-3.824 2.065-3.824 4.336v1.651h-1.497a.443.443 0 0 0-.48.299.444.444 0 0 0-.02.201V16.5a.441.441 0 0 0 .127.373.446.446 0 0 0 .373.127h1.497v7.484a.44.44 0 0 0 .301.478.458.458 0 0 0 .201.02h3.049c.294.034.533-.205.439-.499L17 16.999h2.495a.441.441 0 0 0 .373-.127.446.446 0 0 0 .127-.373v-2.994a.441.441 0 0 0-.127-.373.446.446 0 0 0-.373-.127h-2.498L17 11.508c.097-.638.097-.534.689-.499h1.785c.139-.031.286-.014.39-.115s.164-.238.129-.384V7.516a.442.442 0 0 0-.498-.499zm-.534 2.938-1.251-.048c-1.55 0-1.679.841-1.679 1.702l-.004 1.892a.517.517 0 0 0 .156.377.521.521 0 0 0 .377.157h2.437v1.928h-2.435a.534.534 0 0 0-.534.533l-.001 7.485h-2.02v-7.484c0-.294-.201-.533-.496-.533h-1.5v-1.928h1.5a.519.519 0 0 0 .377-.155c.1-.101.118-.236.118-.378v-2.15c0-2.237.452-3.303 2.826-3.303h2.129v1.906h.001z"/><path fill="#243b76" style="fill:var(--color1,#243b76)" d="M16.001 0C7.179 0 0 7.177 0 16s7.179 16 16.001 16c8.822 0 16.001-7.177 16.001-16S24.823 0 16.001 0zm0 30.934c-8.234 0-14.933-6.7-14.933-14.934S7.767 1.066 16.001 1.066c8.235 0 14.933 6.7 14.933 14.934s-6.699 14.934-14.933 14.934z"/></symbol><symbol id="icon-Instagram" viewBox="0 0 32 32"><path fill="#243b76" style="fill:var(--color1,#243b76)" d="M16 8.667a7.332 7.332 0 0 0-1.43 14.526A7.333 7.333 0 1 0 16 8.668zM16 22a5.998 5.998 0 0 1-4.242-10.243 5.996 5.996 0 0 1 6.539-1.301 6.004 6.004 0 0 1 3.704 5.543 5.996 5.996 0 0 1-6 6zm7.333-22H8.666A8.666 8.666 0 0 0 0 8.666v14.667a8.663 8.663 0 0 0 2.539 6.129A8.667 8.667 0 0 0 8.667 32h14.667a8.663 8.663 0 0 0 6.129-2.539 8.67 8.67 0 0 0 2.539-6.129V8.665a8.663 8.663 0 0 0-2.539-6.129 8.67 8.67 0 0 0-6.129-2.539zm7.334 23.333a7.333 7.333 0 0 1-7.333 7.333H8.667a7.333 7.333 0 0 1-7.333-7.333V8.666a7.333 7.333 0 0 1 7.333-7.333h14.667a7.333 7.333 0 0 1 7.333 7.333v14.667zM26 7.333a1.332 1.332 0 0 1-1.593 1.308 1.332 1.332 0 0 1-.481-2.416 1.337 1.337 0 0 1 1.684.166c.25.251.39.589.39.943z"/></symbol><symbol id="icon-telegram" viewBox="0 0 34 32"><path fill="#243b76" style="fill:var(--color1,#243b76)" d="M25.095 7.793a1.41 1.41 0 0 0-1.437-.223L7.277 14.183a1.408 1.408 0 0 0-.603 2.137c.169.231.404.405.674.5l3.535 1.227 1.915 6.332c.004.013.016.021.021.033a.45.45 0 0 0 .292.268c.009.004.015.012.025.014h.005l.003.001a.416.416 0 0 0 .213-.011c.007-.002.015-.002.023-.005a.455.455 0 0 0 .175-.111c.005-.006.015-.007.02-.013l2.755-3.041 4.02 3.113c.244.191.545.294.855.294.671 0 1.25-.47 1.388-1.126L25.575 9.15a1.393 1.393 0 0 0-.48-1.359v.001zM13.797 19.249l-.646 3.142-1.349-4.46 6.688-3.483-4.569 4.57a.459.459 0 0 0-.124.231zm7.899 4.363a.488.488 0 0 1-.317.365.484.484 0 0 1-.47-.071l-4.355-3.373a.454.454 0 0 0-.618.055l-1.917 2.113.645-3.133 6.573-6.574a.454.454 0 0 0 .045-.593.456.456 0 0 0-.579-.136L11.228 17.2l-3.581-1.245a.482.482 0 0 1-.33-.45.483.483 0 0 1 .305-.474L24 8.418a.485.485 0 0 1 .51.079.478.478 0 0 1 .166.473l-2.981 14.641z"/><path fill="none" stroke="#243b76" style="stroke:var(--color1,#243b76)" stroke-width="1.067" d="M16.002.533h1.067C25.611.533 32.536 7.458 32.536 16s-6.925 15.467-15.467 15.467h-1.067C7.46 31.467.535 24.542.535 16S7.46.533 16.002.533z"/></symbol><symbol id="icon-ruby" viewBox="0 0 32 32"><path style="fill:var(--color1)" d="M30.933 30.933V32H32v-1.067h-1.067zm0-29.866H32V0h-1.067v1.067zm-12.8 0V0h-.442l-.314.311.755.755zM1.067 18.133l-.755-.755-.311.314v.442h1.067zm0 12.8H0V32h1.067v-1.067zM9.6 22.4l-.478.954.041.021.043.015.395-.99zm0-12.8V8.533a1.066 1.066 0 0 0-1.066 1.066h1.067zm12.8 0 .99-.397-.017-.041-.019-.041-.954.478zM32 30.933V1.066h-2.133v29.867H32zM30.933 0h-12.8v2.133h12.8V0zM17.378.311.311 17.378l1.51 1.51L18.888 1.821l-1.51-1.51zM0 18.133v12.8h2.133v-12.8H0zM1.067 32h29.867v-2.133H1.067V32zM30.178.311.311 30.178l1.51 1.51L31.688 1.821l-1.51-1.51zM10.667 22.4V9.6H8.534v12.8h2.133zM9.6 10.667h12.8V8.534H9.6v2.133zM9.203 23.39l21.333 8.533.794-1.98L9.997 21.41l-.794 1.98zM21.41 9.997l8.533 21.333 1.98-.794L23.39 9.203l-1.98.794zm-4.23-8.452 4.267 8.533 1.907-.956L19.087.589l-1.907.956zM.589 19.087l8.533 4.267.956-1.907-8.533-4.267-.956 1.907z"/></symbol><symbol id="icon-carbon_delivery" viewBox="0 0 34 32"><path style="fill:var(--color1)" d="M33.43 7.157 21.172.852a1.294 1.294 0 0 0-1.182 0L7.732 7.157c-.192.099-.352.244-.464.421a1.087 1.087 0 0 0 0 1.166c.111.176.272.322.464.421l11.623 5.979v12.288l-3.722-1.915-1.182 2.007 5.538 2.849a1.294 1.294 0 0 0 1.182 0l12.258-6.305c.192-.099.353-.244.464-.421s.171-.378.171-.583V8.161c0-.205-.059-.407-.171-.583s-.272-.322-.464-.421zM20.58 3.165l9.715 4.996-9.715 4.996-9.715-4.996 9.715-4.996zm11.033 19.222-9.807 5.044V15.143l9.807-5.044v12.288z"/><path style="fill:var(--color1)" d="M9.935 15.755H0v-2.271h9.935v2.271zm2.484 9.084H2.484v-2.271h9.935v2.271zm2.484-4.542H4.968v-2.271h9.935v2.271z"/></symbol><symbol id="icon-award" viewBox="0 0 32 32"><path fill="none" stroke="#fff" style="stroke:var(--color1,#fff)" stroke-width="1.778" d="m11.556 15.308 3.275 3.486 5.614-6.349"/><path fill="none" stroke="#fff" style="stroke:var(--color1,#fff)" stroke-width="1.778" d="M16 8a8 8 0 1 1 0 16 8 8 0 0 1 0-16z"/><path fill="none" stroke="#fff" style="stroke:var(--color1,#fff)" stroke-width="1.778" d="m11.707 30.222-2.236-4.68-4.92-.826.716-5.23-3.488-4.221 3.488-3.303-.716-5.23 4.92-.826 2.236-4.129 4.741 2.019 4.115-2.019 2.773 4.955 4.294.642-.805 4.588 3.399 3.945-3.399 3.579.805 5.23-4.294.826-2.773 4.68-4.741-2.294-4.115 2.294z"/></symbol><symbol id="icon-logo" viewBox="0 0 32 32"><path fill="#3b4d7c" style="fill:var(--color2,#3b4d7c)" d="M16 0c8.835 0 16 7.165 16 16s-7.165 16-16 16S0 24.835 0 16 7.165 0 16 0z"/><path fill="none" stroke="#fff" style="stroke:var(--color1,#fff)" stroke-miterlimit="10" stroke-width=".48" d="M1.411 12.016C3.158 5.565 9.053.822 16.057.822M30.672 20.077c-1.782 6.394-7.651 11.088-14.614 11.088C9.079 31.162 3.2 26.451 1.431 20.032M16.058.822c7.014 0 12.915 4.758 14.653 11.222"/><path style="fill:var(--)" d="M21.216 18.832a2.357 2.357 0 0 1-.413-.579c-.65-1.267-.25-2.726.605-3.846.742-.003 1.491 0 2.237 0-.602.765-.954 1.962-.998 2.666-.038.64.106 1.2.637 1.338.56.147 1.222-.115 1.789-.701.643-.666.96-1.402.989-2.352.019-.64-.154-1.27-.659-1.533-.016-.006-.029-.016-.045-.022-.227-.102-.47-.106-.746-.106h-.042c-.899 0-5.078 0-5.078-.003.022-.051.579-1.254.64-1.28H24.971c.88 0 1.763.214 2.426.822 2.003 1.834.218 5.382-2.8 6.192-1.107.301-2.531.272-3.379-.595zm-5.155-2.099-.374 1.037 3.523.003.374-1.037-3.523-.003zm-1.495-1.331h.41l-.941 3.83h-.368l-.003-.016-1.059-2.246-.57 2.234-1.242.016.938-3.824 1.254-.016-.15.589 1.059 2.147.672-2.714zm-4.841.012 1.264.003-.96 3.818-1.264-.003.96-3.818zm-6.311-1.782-2.304-.019.614-1.222h5.434c.656 0 1.446.051 2.016.406.835.518.928 1.395.48 2.198-.874 1.565-3.44 2.688-5.248 2.726L3.9 19.577l-1.766.016 1.414-5.194h1.75a52.132 52.132 0 0 0-.592 2.218c2.768-.083 3.734-2.154 2.381-2.752-.672-.298-1.99-.25-2.784-.246l-.89.006v.006zm25.952 4.95 1.616.01-.147.634h-2.892l1.059-4.109 1.226-.01-.861 3.475z"/><path style="fill:var(--color1)" d="M29.293 20.394h.214l-.118.877h-.214l.118-.877zm.144-.359c.035 0 .067.013.093.038s.038.058.038.093c0 .035-.013.067-.038.093s-.058.038-.093.038c-.035 0-.067-.013-.093-.038s-.038-.058-.038-.093c0-.035.013-.067.038-.093s.058-.038.093-.038zm-1.008 1.235h-.221l.118-.877h.221l-.042.317h.317l.042-.317h.221l-.118.877h-.221l.048-.365h-.317l-.048.365zm-.218-1.238c.029 0 .051.01.07.029s.029.042.029.067c0 .038-.013.07-.038.096s-.058.038-.093.038a.099.099 0 0 1-.103-.103c0-.035.013-.064.038-.09a.14.14 0 0 1 .096-.038zm-.355 0c.029 0 .051.01.07.029s.029.042.029.067c0 .038-.013.07-.038.096s-.058.038-.093.038a.099.099 0 0 1-.103-.103c0-.035.013-.064.042-.09a.128.128 0 0 1 .093-.038zm.048.362h.214l-.118.877h-.214l.118-.877zm-.742.707c.054 0 .099-.013.138-.035s.074-.061.099-.112a.34.34 0 0 0 .042-.154c0-.07-.019-.125-.061-.166s-.093-.064-.16-.064a.266.266 0 0 0-.195.083.302.302 0 0 0-.08.218c0 .067.019.125.061.166a.201.201 0 0 0 .157.064zm.323-.707h.218l-.122.877h-.214l.013-.096c-.048.045-.09.074-.131.09s-.086.026-.138.026a.34.34 0 0 1-.278-.128.474.474 0 0 1-.102-.298.504.504 0 0 1 .243-.428.434.434 0 0 1 .23-.067.304.304 0 0 1 .262.147l.019-.122zm-1.319.172a.291.291 0 0 0-.138.035.29.29 0 0 0-.099.112.334.334 0 0 0-.038.154c0 .067.019.125.061.166a.206.206 0 0 0 .157.064.255.255 0 0 0 .192-.083.316.316 0 0 0 .08-.218.224.224 0 0 0-.061-.166.19.19 0 0 0-.154-.064zm-.361 1.024h-.214l.163-1.197h.214l-.013.096c.045-.045.09-.077.128-.093s.086-.026.134-.026c.115 0 .208.042.275.128s.102.186.102.298a.507.507 0 0 1-.24.428.437.437 0 0 1-.227.064.295.295 0 0 1-.259-.147l-.064.448zM24.8 20.394h.221l-.048.346.358-.346h.275l-.442.419.358.458h-.282l-.246-.32-.061.051-.035.266h-.221l.122-.874zm-.806.604-.294-.912h.253l.192.662.317-.662h.234l-.432.848c-.077.154-.147.253-.208.298s-.131.067-.214.067c-.122 0-.224-.058-.307-.173l.166-.15c.032.042.061.07.083.083a.187.187 0 0 0 .086.019c.045.003.086-.026.125-.08zm-1.517.112h.109c.102 0 .15-.032.15-.099 0-.074-.048-.112-.144-.112h-.086l-.029.211zm.051-.361h.099c.029 0 .058-.01.08-.029a.086.086 0 0 0 .035-.074c0-.061-.038-.093-.115-.093h-.074l-.026.195zm-.291.521.118-.877h.339c.086 0 .154.022.198.064s.067.093.067.15c0 .096-.054.16-.163.192.115.045.173.122.173.224 0 .163-.115.246-.349.246h-.384zm-1.047-.691c-.09 0-.157.032-.202.096a.33.33 0 0 0-.07.205c0 .064.019.118.058.157.038.042.09.061.154.061.09 0 .16-.032.208-.093s.07-.131.07-.208a.21.21 0 0 0-.061-.157.204.204 0 0 0-.157-.061zm.016-.205c.077 0 .147.019.211.054s.112.086.15.154a.472.472 0 0 1 .054.221.465.465 0 0 1-.147.349.493.493 0 0 1-.362.144.403.403 0 0 1-.298-.112.404.404 0 0 1-.112-.294c0-.147.051-.269.15-.365a.479.479 0 0 1 .352-.15zm-1.286.896h-.221l.118-.877h.221l-.045.317h.317l.045-.317h.221l-.118.877h-.221l.051-.365h-.317l-.051.365zm-.563-.531a.245.245 0 0 0-.08-.122.218.218 0 0 0-.138-.042.26.26 0 0 0-.144.042.268.268 0 0 0-.096.118h.458v.003zm-.055.275.189.099c-.042.054-.099.099-.17.131s-.147.048-.234.048c-.134 0-.24-.038-.317-.112s-.115-.176-.115-.298c0-.141.048-.262.144-.362s.214-.147.349-.147a.408.408 0 0 1 .375.211.45.45 0 0 1 .054.224c0 .026-.003.054-.006.09h-.701a.208.208 0 0 0 .061.147c.038.035.09.054.157.054a.36.36 0 0 0 .214-.086zm-.777.256h-.23l-.141-.531-.288.531h-.23l.493-.877h.141l.256.877zm-1.127-.486a.218.218 0 0 0-.054-.147c-.035-.038-.086-.058-.154-.058-.077 0-.141.029-.195.086s-.08.125-.08.202c0 .067.019.122.058.16s.09.058.147.058a.267.267 0 0 0 .195-.086.302.302 0 0 0 .083-.214zm.272-.749-.029.202c-.058.01-.138.013-.237.013-.096 0-.17.003-.218.013s-.093.029-.134.058a.294.294 0 0 0-.096.106.728.728 0 0 0-.054.176c.086-.154.205-.227.355-.227.099 0 .182.032.256.099s.112.16.112.278c0 .15-.051.275-.154.381s-.23.157-.378.157c-.083 0-.157-.019-.218-.061s-.106-.09-.138-.15a.551.551 0 0 1-.045-.253c0-.144.016-.266.051-.368s.08-.186.134-.246a.417.417 0 0 1 .221-.128c.09-.026.23-.038.419-.038.054 0 .102-.003.15-.01zm-1.587.544c-.09 0-.157.032-.202.096a.33.33 0 0 0-.07.205c0 .064.019.118.058.157.038.042.09.061.154.061.09 0 .16-.032.208-.093s.07-.131.07-.208a.21.21 0 0 0-.061-.157.204.204 0 0 0-.157-.061zm.016-.205c.077 0 .147.019.211.054s.112.086.15.154a.472.472 0 0 1 .054.221.465.465 0 0 1-.147.349.493.493 0 0 1-.362.144.403.403 0 0 1-.298-.112.404.404 0 0 1-.112-.294c0-.147.051-.269.15-.365a.479.479 0 0 1 .352-.15zm-1.069.192a.291.291 0 0 0-.138.035.29.29 0 0 0-.099.112.334.334 0 0 0-.038.154c0 .067.019.125.061.166a.206.206 0 0 0 .157.064.255.255 0 0 0 .192-.083.316.316 0 0 0 .08-.218.224.224 0 0 0-.061-.166.199.199 0 0 0-.154-.064zm-.361 1.024h-.214l.163-1.197h.214l-.013.096c.045-.045.09-.077.128-.093s.086-.026.134-.026c.115 0 .208.042.275.128s.102.186.102.298a.507.507 0 0 1-.24.428.437.437 0 0 1-.227.064.295.295 0 0 1-.259-.147l-.064.448zm-.848-1.126a.41.41 0 0 1 .259-.09c.083 0 .15.019.198.061a.188.188 0 0 1 .074.16c0 .042-.01.077-.029.112-.019.032-.061.061-.122.09.086.054.131.125.131.218 0 .083-.029.15-.09.202-.058.051-.147.077-.262.077-.138 0-.24-.032-.31-.099l.144-.154a.234.234 0 0 0 .144.058c.038 0 .07-.01.096-.029s.038-.042.038-.064-.01-.045-.029-.067-.045-.035-.077-.035h-.058l.022-.157h.045c.038 0 .067-.01.09-.029s.032-.042.032-.07c0-.026-.01-.045-.026-.061s-.038-.022-.064-.022a.294.294 0 0 0-.144.051l-.064-.15z"/></symbol><symbol id="icon-tools" viewBox="0 0 32 32"><path style="fill:var(--color1)" d="m3.852.756-.667.611-1.666 1.618-.629.648.481.755 2.482 4.028.333.575h3.483l4.741 4.568c-4.236 4.131-9.625 9.381-9.815 9.566-1.857 1.802-1.861 4.755.036 6.473 1.852 1.775 4.871 1.821 6.631 0l.036-.037 7.296-7.12 7.334 7.156.11.072c1.861 1.703 4.82 1.726 6.556-.072v-.035h.036c1.816-1.803 1.835-4.734-.036-6.439l-.038-.035-6.184-5.97c4.161-.377 7.42-3.79 7.481-7.912h.037c.005-.023 0-.049 0-.072v-.036c.116-1.33-.18-2.603-.889-3.704l-.813-1.221-5.519 5.358-1.666-1.691 5.63-5.466-1.63-.647a8.555 8.555 0 0 0-3.297-.685c-4.556 0-8.296 3.632-8.296 8.056 0 .481.107.899.185 1.33-.518.504-.907.917-1.518 1.511L9.373 7.371V3.954l-.593-.323-4.148-2.41-.777-.467zm19.852 2.589c.166 0 .282.094.444.108l-4.481 4.351.814.827 3.334 3.344.814.827 4.704-4.567c.024.265.218.458.185.755v.108c0 3.169-2.662 5.754-5.926 5.754-.435 0-.962-.099-1.555-.216l-.631-.107-.444.432L7.593 27.979h-.038v.037c-.841.894-2.315.916-3.296-.037v-.036h-.038c-.921-.817-.943-2.247.038-3.2.449-.437 9.147-8.955 13.407-13.09l.482-.467-.186-.648a6.908 6.908 0 0 1-.185-1.438c0-3.169 2.662-5.754 5.926-5.754zm-19.482.288L7 5.288v1.151l-.258.251H5.557L3.853 3.994l.37-.36zm17.333 13.989 7.372 7.121v.036h.036c.922.817.945 2.248-.036 3.2h-.038v.037c-.841.894-2.315.916-3.296-.037l-7.334-7.156 3.296-3.202z"/></symbol><symbol id="icon-telegram-white" viewBox="0 0 32 32"><path fill="#fff" style="fill:var(--color1,#fff)" d="M24.283 8.058a1.376 1.376 0 0 0-1.391-.216l-15.853 6.4a1.364 1.364 0 0 0-.583 2.069c.163.224.391.392.652.483l3.421 1.187 1.854 6.128c.004.012.015.02.02.032a.435.435 0 0 0 .282.26c.009.003.015.011.024.013h.005l.003.001a.39.39 0 0 0 .206-.011l.022-.004a.426.426 0 0 0 .169-.108c.005-.006.014-.007.02-.012l2.666-2.943 3.89 3.013c.236.185.527.285.827.285.649 0 1.209-.455 1.343-1.089l2.886-14.172a1.354 1.354 0 0 0-.464-1.315v.001zM13.35 19.144l-.626 3.041-1.305-4.316 6.472-3.371-4.421 4.422a.439.439 0 0 0-.12.224zm7.644 4.222a.467.467 0 0 1-.307.353.464.464 0 0 1-.454-.069l-4.214-3.264a.441.441 0 0 0-.598.054l-1.855 2.045.625-3.032 6.361-6.362a.447.447 0 0 0 .044-.574.44.44 0 0 0-.56-.131l-9.169 4.776-3.466-1.205a.462.462 0 0 1-.319-.436.472.472 0 0 1 .296-.458l15.85-6.4a.474.474 0 0 1 .494.076.47.47 0 0 1 .161.458l-2.885 14.169z"/><path fill="none" stroke="#fff" style="stroke:var(--color1,#fff)" stroke-width="1.032" d="M15.484 1.032h1.032c8.266 0 14.968 6.701 14.968 14.968s-6.701 14.968-14.968 14.968h-1.032C7.218 30.968.516 24.267.516 16S7.217 1.032 15.484 1.032z"/></symbol><symbol id="icon-viber-white" viewBox="0 0 31 32"><path fill="#fff" style="fill:var(--color1,#fff)" d="M20.703 14.672c.019-2.328-1.902-4.463-4.282-4.758l-.156-.023a2.193 2.193 0 0 0-.362-.041c-.488 0-.618.353-.652.563a.68.68 0 0 0 .094.513c.162.226.446.265.674.3.067.009.131.017.183.031 2.139.492 2.86 1.267 3.211 3.457.009.055.012.12.016.19.016.261.048.805.616.805a.89.89 0 0 0 .15-.012c.529-.083.512-.581.504-.819a1.249 1.249 0 0 1 .003-.204l.002-.002z"/><path fill="#fff" style="fill:var(--color1,#fff)" d="M15.766 9.059c.062.005.125.009.173.017 3.511.559 5.128 2.275 5.576 5.93.008.062.008.137.009.219.005.286.014.879.632.891h.019a.604.604 0 0 0 .459-.179c.192-.207.18-.515.169-.765-.003-.059-.006-.117-.005-.167.044-3.737-3.09-7.127-6.707-7.252l-.044.002a.297.297 0 0 1-.042.003c-.036 0-.081-.003-.128-.006a1.95 1.95 0 0 0-.187-.009c-.576 0-.685.421-.699.674-.031.582.513.624.776.643zm5.578 10.669a12.533 12.533 0 0 1-.223-.18c-.384-.318-.793-.612-1.186-.896l-.247-.178c-.506-.365-.96-.545-1.389-.545-.577 0-1.081.331-1.498.982-.184.287-.409.428-.683.428a1.32 1.32 0 0 1-.551-.142c-1.631-.765-2.796-1.935-3.463-3.48-.321-.749-.219-1.236.35-1.634.321-.225.921-.644.879-1.448-.047-.913-1.999-3.659-2.821-3.971a1.558 1.558 0 0 0-1.089-.003c-.944.328-1.623.905-1.962 1.665-.328.737-.312 1.599.044 2.498 1.025 2.6 2.466 4.866 4.285 6.735 1.779 1.831 3.967 3.329 6.501 4.455.228.101.468.156.643.197l.148.037c.02.006.041.009.062.009h.02c1.192 0 2.623-1.123 3.063-2.406.385-1.123-.318-1.678-.883-2.122v-.002zm-5.051-7.699c-.203.005-.629.016-.779.462-.069.209-.061.39.025.538.126.218.37.286.59.321.799.133 1.211.59 1.292 1.436.039.396.296.671.627.671.025.001.05-.001.075-.003.398-.05.59-.351.573-.897.006-.571-.283-1.217-.774-1.732-.493-.518-1.088-.81-1.629-.796z"/><path fill="none" stroke="#fff" style="stroke:var(--color1,#fff)" stroke-width="1.032" d="M15.484 1.032c8.266 0 14.968 6.701 14.968 14.968s-6.701 14.968-14.968 14.968C7.218 30.968.516 24.267.516 16S7.217 1.032 15.484 1.032z"/></symbol><symbol id="icon-map" viewBox="0 0 23 32"><path fill="#fff" style="fill:var(--color1,#fff)" opacity=".6" d="M19.364 17.746c-.998 1.972-2.351 3.937-3.733 5.701a58.844 58.844 0 0 1-4.202 4.773 59.037 59.037 0 0 1-4.202-4.773c-1.383-1.764-2.735-3.729-3.733-5.701-1.01-1.993-1.589-3.859-1.589-5.46 0-2.463 1.003-4.825 2.789-6.566S8.902 3 11.428 3s4.948.978 6.734 2.72 2.789 4.103 2.789 6.566c0 1.601-.581 3.467-1.589 5.46zm-7.935 13.111s11.429-10.56 11.429-18.571c0-2.955-1.204-5.79-3.347-7.879s-5.05-3.264-8.081-3.264c-3.031 0-5.938 1.174-8.081 3.264S.002 9.331.002 12.286c0 8.012 11.429 18.571 11.429 18.571z"/><path fill="#fff" style="fill:var(--color1,#fff)" opacity=".6" d="M11.429 16c-1.01 0-1.979-.391-2.694-1.088s-1.116-1.641-1.116-2.626c0-.985.401-1.93 1.116-2.626s1.683-1.088 2.694-1.088c1.01 0 1.979.391 2.694 1.088s1.116 1.641 1.116 2.626c0 .985-.401 1.93-1.116 2.626S12.44 16 11.429 16zm0 1.857c1.516 0 2.969-.587 4.041-1.632s1.674-2.462 1.674-3.94c0-1.478-.602-2.895-1.674-3.94s-2.525-1.632-4.041-1.632c-1.516 0-2.969.587-4.041 1.632s-1.674 2.462-1.674 3.94c0 1.478.602 2.895 1.674 3.94s2.525 1.632 4.041 1.632z"/></symbol><symbol id="icon-arrow-bottom" viewBox="0 0 32 32"><path d="M31.574 7.699a1.455 1.455 0 0 0-2.057 0L16 21.216 2.483 7.699A1.455 1.455 0 0 0 .426 9.756l14.546 14.545a1.454 1.454 0 0 0 2.056 0L31.573 9.756a1.455 1.455 0 0 0 0-2.057z"/></symbol><symbol id="icon-home" viewBox="0 0 29 32"><path d="M14.43 1.571a1.05 1.05 0 0 0-1.49 0L.308 14.203a1.05 1.05 0 0 0-.308.744v14.739c0 .581.471 1.053 1.053 1.053h9.474c.581 0 1.053-.471 1.053-1.053v-8.421h4.211v8.421c0 .581.471 1.053 1.053 1.053h9.474c.581 0 1.053-.471 1.053-1.053V14.948c0-.291-.118-.554-.308-.745l-2.85-2.848V4.421c0-.581-.471-1.053-1.053-1.053h-2.105c-.581 0-1.053.471-1.053 1.053v2.722l-5.57-5.571zM2.105 28.633v-13.25L13.684 3.806l11.579 11.577v13.25h-7.368v-8.421c0-.581-.471-1.053-1.053-1.053h-6.316c-.581 0-1.053.471-1.053 1.053v8.421H2.105z"/></symbol></defs></svg>