<svg width="31" height="31" viewBox="0 0 31 31" fill="none" xmlns="http://www.w3.org/2000/svg">
<path d="M23.5245 7.80608C23.3397 7.65288 23.1168 7.55256 22.8796 7.51574C22.6424 7.47892 22.3996 7.50698 22.1771 7.59694L6.81985 13.7966C6.57169 13.8985 6.36041 14.0736 6.21407 14.2985C6.06772 14.5233 5.99323 14.7874 6.00048 15.0556C6.00774 15.3238 6.09639 15.5835 6.25468 15.8001C6.41297 16.0167 6.6334 16.1801 6.88671 16.2685L10.2004 17.4188L11.9961 23.3553C11.9995 23.3673 12.0106 23.375 12.0158 23.3861C12.0343 23.4335 12.0613 23.4771 12.0955 23.5147C12.1475 23.5727 12.2145 23.6152 12.2892 23.6373C12.2978 23.6407 12.3038 23.6484 12.3123 23.6501H12.3175L12.3201 23.651C12.3864 23.6653 12.4553 23.6617 12.5198 23.6407C12.5266 23.639 12.5335 23.639 12.5412 23.6364C12.6031 23.6147 12.6592 23.5789 12.7049 23.5319C12.7101 23.5259 12.7186 23.525 12.7238 23.5199L15.3063 20.669L19.0751 23.5876C19.304 23.7667 19.586 23.8636 19.8765 23.8636C20.5057 23.8636 21.0482 23.423 21.1777 22.8084L23.9736 9.07892C24.021 8.84584 24.0043 8.60426 23.9252 8.37995C23.8461 8.15563 23.7076 7.95699 23.5245 7.80522V7.80608ZM12.9329 18.5459L12.3269 21.4919L11.0627 17.3108L17.3326 14.0451L13.0495 18.3291C12.9902 18.3883 12.9496 18.4638 12.9329 18.5459ZM20.3377 22.6362C20.3216 22.7139 20.2858 22.7862 20.2337 22.846C20.1816 22.9059 20.115 22.9514 20.0402 22.9782C19.9673 23.0062 19.8884 23.0148 19.8111 23.0031C19.7339 22.9914 19.661 22.9597 19.5997 22.9113L15.5172 19.7493C15.4318 19.6835 15.3248 19.6522 15.2174 19.6617C15.11 19.6712 15.0101 19.7209 14.9377 19.8008L13.1403 21.7816L13.7455 18.8442L19.9074 12.6814C19.9795 12.609 20.0235 12.5132 20.0312 12.4113C20.0389 12.3094 20.01 12.208 19.9495 12.1256C19.8891 12.0431 19.8012 11.985 19.7017 11.9617C19.6022 11.9383 19.4976 11.9513 19.4068 11.9983L10.5244 16.6251L7.16699 15.4577C7.07797 15.4283 7.00033 15.3719 6.94488 15.2963C6.88942 15.2207 6.8589 15.1297 6.85757 15.036C6.8533 14.9414 6.87856 14.8479 6.92986 14.7683C6.98116 14.6887 7.05595 14.6271 7.14385 14.592L22.4985 8.39235C22.5772 8.35892 22.6636 8.34811 22.7481 8.36113C22.8326 8.37416 22.9118 8.4105 22.9768 8.46607C23.0414 8.51834 23.0902 8.58754 23.1177 8.66595C23.1453 8.74435 23.1505 8.82887 23.1328 8.91006L20.3377 22.637V22.6362Z" fill="white"/>
<rect x="0.5" y="1" width="30" height="29" rx="14.5" stroke="white"/>
</svg>
