<svg width="30" height="31" viewBox="0 0 30 31" fill="none" xmlns="http://www.w3.org/2000/svg">
<path d="M20.0563 14.2137C20.0744 11.9582 18.2135 9.89017 15.9081 9.60446L15.7569 9.58179C15.6413 9.55883 15.524 9.54568 15.4062 9.54248C14.933 9.54248 14.8076 9.88413 14.7743 10.0882C14.7555 10.173 14.7538 10.2606 14.7693 10.3461C14.7849 10.4315 14.8174 10.5129 14.865 10.5856C15.0222 10.8048 15.2974 10.8426 15.5181 10.8758C15.5831 10.8849 15.6451 10.8924 15.695 10.906C17.7675 11.3822 18.4659 12.1336 18.8061 14.2545C18.8151 14.3074 18.8182 14.3709 18.8212 14.4389C18.8363 14.6914 18.868 15.219 19.4183 15.219C19.4637 15.219 19.512 15.216 19.5634 15.2069C20.0759 15.1268 20.0593 14.6445 20.0517 14.4132C20.0479 14.3574 20.0479 14.3013 20.0517 14.2454C20.0534 14.2354 20.0544 14.2253 20.0547 14.2152L20.0563 14.2137Z" fill="white"/>
<path d="M15.273 8.77589C15.3334 8.78042 15.3939 8.78496 15.4408 8.79252C18.8421 9.33371 20.4083 10.9966 20.8421 14.537C20.8497 14.5975 20.8497 14.6701 20.8512 14.7487C20.8557 15.0253 20.8648 15.5998 21.4634 15.6119H21.4816C21.5638 15.6162 21.6459 15.603 21.7226 15.573C21.7992 15.543 21.8686 15.497 21.926 15.438C22.112 15.237 22.0999 14.9392 22.0893 14.6973C22.0863 14.6398 22.0832 14.5839 22.0847 14.5355C22.1271 10.915 19.0915 7.63152 15.5874 7.51058L15.5451 7.51209C15.5315 7.51408 15.5179 7.51509 15.5042 7.51512C15.4695 7.51512 15.4256 7.51209 15.3803 7.50907C15.32 7.50356 15.2594 7.50053 15.1989 7.5C14.6411 7.5 14.5352 7.90816 14.5216 8.15306C14.4914 8.71693 15.019 8.75775 15.273 8.77589ZM20.6773 19.1115C20.6045 19.0545 20.5325 18.9965 20.4612 18.9376C20.0893 18.6293 19.6932 18.345 19.3123 18.0699C19.2325 18.0126 19.1529 17.9552 19.0734 17.8976C18.5836 17.5438 18.1437 17.37 17.728 17.37C17.1686 17.37 16.6804 17.6905 16.2767 18.3209C16.0984 18.599 15.8807 18.7351 15.6146 18.7351C15.4289 18.7284 15.2468 18.6815 15.081 18.5975C13.5012 17.8568 12.372 16.723 11.7265 15.2264C11.4151 14.5008 11.5148 14.0291 12.0651 13.6436C12.3765 13.4259 12.957 13.0193 12.9162 12.2407C12.8708 11.3564 10.9797 8.69577 10.183 8.39342C9.84316 8.26517 9.46841 8.2641 9.12783 8.3904C8.21324 8.70786 7.55564 9.2672 7.2276 10.0034C6.91014 10.7169 6.92526 11.5529 7.26993 12.4237C8.26313 14.9422 9.65844 17.1372 11.4211 18.9482C13.1445 20.7215 15.2639 22.1727 17.7189 23.2642C17.9396 23.3624 18.1724 23.4153 18.3417 23.4547L18.4853 23.4909C18.505 23.4966 18.5254 23.4996 18.5458 23.5H18.5655C19.7204 23.5 21.1067 22.4116 21.533 21.1689C21.9064 20.0805 21.2246 19.5438 20.6773 19.113V19.1115ZM15.7839 11.6527C15.5874 11.6572 15.1747 11.6678 15.0296 12.1002C14.9631 12.3027 14.9706 12.4781 15.0538 12.6217C15.1762 12.8333 15.412 12.8983 15.6252 12.9331C16.3992 13.0616 16.7983 13.5045 16.8769 14.3239C16.9147 14.7079 17.1641 14.9739 17.4846 14.9739C17.5088 14.9744 17.5331 14.9734 17.5572 14.9709C17.9426 14.9225 18.1286 14.6308 18.112 14.1017C18.118 13.5484 17.8383 12.9225 17.3621 12.4237C16.8844 11.9218 16.3085 11.6391 15.7839 11.6527Z" fill="white"/>
<rect x="0.5" y="1" width="29" height="29" rx="14.5" stroke="white"/>
</svg>
