<svg aria-hidden="true" style="position: absolute; width: 0; height: 0; overflow: hidden;" version="1.1"
  xmlns="http://www.w3.org/2000/svg" xmlns:xlink="http://www.w3.org/1999/xlink">
  <defs>
    <symbol id="icon-logo" viewBox="0 0 32 32">
      <path fill="#3b4d7c" style="fill: var(--color1, #3b4d7c)"
        d="M16 0c8.835 0 16 7.165 16 16s-7.165 16-16 16c-8.835 0-16-7.165-16-16s7.165-16 16-16z"></path>
      <path fill="none" stroke="#fff" style="stroke: var(--color2, #fff)" stroke-linejoin="miter" stroke-linecap="butt"
        stroke-miterlimit="10" stroke-width="0.48" d="M1.411 12.016c1.747-6.451 7.642-11.194 14.646-11.194"></path>
      <path fill="none" stroke="#fff" style="stroke: var(--color2, #fff)" stroke-linejoin="miter" stroke-linecap="butt"
        stroke-miterlimit="10" stroke-width="0.48"
        d="M30.672 20.077c-1.782 6.394-7.651 11.088-14.614 11.088-6.979-0.003-12.858-4.714-14.627-11.133"></path>
      <path fill="none" stroke="#fff" style="stroke: var(--color2, #fff)" stroke-linejoin="miter" stroke-linecap="butt"
        stroke-miterlimit="10" stroke-width="0.48" d="M16.058 0.822c7.014 0 12.915 4.758 14.653 11.222"></path>
      <path fill="#fff" style="fill: var(--color2, #fff)"
        d="M21.216 18.832c-0.166-0.17-0.304-0.365-0.413-0.579-0.65-1.267-0.25-2.726 0.605-3.846 0.742-0.003 1.491 0 2.237 0-0.602 0.765-0.954 1.962-0.998 2.666-0.038 0.64 0.106 1.2 0.637 1.338 0.56 0.147 1.222-0.115 1.789-0.701 0.643-0.666 0.96-1.402 0.989-2.352 0.019-0.64-0.154-1.27-0.659-1.533-0.016-0.006-0.029-0.016-0.045-0.022-0.227-0.102-0.47-0.106-0.746-0.106-0.013 0-0.026 0-0.042 0-0.899 0-5.078 0-5.078-0.003 0.022-0.051 0.579-1.254 0.64-1.28 1.584 0 3.165 0 4.749 0 0.029 0 0.061 0 0.090 0 0.88 0 1.763 0.214 2.426 0.822 2.003 1.834 0.218 5.382-2.8 6.192-1.107 0.301-2.531 0.272-3.379-0.595zM16.061 16.733l-0.374 1.037 3.523 0.003 0.374-1.037-3.523-0.003zM14.566 15.402h0.41l-0.941 3.83h-0.368l-0.003-0.016-1.059-2.246-0.57 2.234-1.242 0.016 0.938-3.824 1.254-0.016-0.15 0.589 1.059 2.147 0.672-2.714zM9.725 15.414l1.264 0.003-0.96 3.818-1.264-0.003 0.96-3.818zM3.414 13.632l-2.304-0.019 0.614-1.222c1.811 0 3.622 0 5.434 0 0.656 0 1.446 0.051 2.016 0.406 0.835 0.518 0.928 1.395 0.48 2.198-0.874 1.565-3.44 2.688-5.248 2.726l-0.506 1.856-1.766 0.016 1.414-5.194h1.75c-0.211 0.739-0.438 1.562-0.592 2.218 2.768-0.083 3.734-2.154 2.381-2.752-0.672-0.298-1.99-0.25-2.784-0.246l-0.89 0.006v0.006zM29.366 18.582l1.616 0.010-0.147 0.634h-1.094c-0.397 0-0.794 0-1.19 0h-0.608l1.059-4.109 1.226-0.010-0.861 3.475z">
      </path>
      <path fill="#fff" style="fill: var(--color2, #fff)"
        d="M29.293 20.394h0.214l-0.118 0.877h-0.214l0.118-0.877zM29.437 20.035c0.035 0 0.067 0.013 0.093 0.038s0.038 0.058 0.038 0.093c0 0.035-0.013 0.067-0.038 0.093s-0.058 0.038-0.093 0.038c-0.035 0-0.067-0.013-0.093-0.038s-0.038-0.058-0.038-0.093c0-0.035 0.013-0.067 0.038-0.093s0.058-0.038 0.093-0.038zM28.429 21.27h-0.221l0.118-0.877h0.221l-0.042 0.317h0.317l0.042-0.317h0.221l-0.118 0.877h-0.221l0.048-0.365h-0.317l-0.048 0.365zM28.211 20.032c0.029 0 0.051 0.010 0.070 0.029s0.029 0.042 0.029 0.067c0 0.038-0.013 0.070-0.038 0.096s-0.058 0.038-0.093 0.038c-0.029 0-0.054-0.010-0.074-0.029s-0.029-0.045-0.029-0.074c0-0.035 0.013-0.064 0.038-0.090 0.029-0.026 0.061-0.038 0.096-0.038zM27.856 20.032c0.029 0 0.051 0.010 0.070 0.029s0.029 0.042 0.029 0.067c0 0.038-0.013 0.070-0.038 0.096s-0.058 0.038-0.093 0.038c-0.029 0-0.054-0.010-0.074-0.029s-0.029-0.045-0.029-0.074c0-0.035 0.013-0.064 0.042-0.090 0.026-0.026 0.058-0.038 0.093-0.038zM27.904 20.394h0.214l-0.118 0.877h-0.214l0.118-0.877zM27.162 21.101c0.054 0 0.099-0.013 0.138-0.035s0.074-0.061 0.099-0.112c0.026-0.051 0.042-0.102 0.042-0.154 0-0.070-0.019-0.125-0.061-0.166s-0.093-0.064-0.16-0.064c-0.077 0-0.141 0.029-0.195 0.083-0.054 0.058-0.080 0.128-0.080 0.218 0 0.067 0.019 0.125 0.061 0.166 0.042 0.045 0.093 0.064 0.157 0.064zM27.485 20.394h0.218l-0.122 0.877h-0.214l0.013-0.096c-0.048 0.045-0.090 0.074-0.131 0.090s-0.086 0.026-0.138 0.026c-0.115 0-0.208-0.042-0.278-0.128-0.067-0.086-0.102-0.186-0.102-0.298 0-0.086 0.022-0.17 0.067-0.246s0.102-0.138 0.176-0.182c0.074-0.045 0.15-0.067 0.23-0.067 0.054 0 0.106 0.013 0.15 0.038s0.083 0.061 0.112 0.109l0.019-0.122zM26.166 20.566c-0.051 0-0.096 0.013-0.138 0.035-0.038 0.022-0.070 0.061-0.099 0.112-0.026 0.051-0.038 0.102-0.038 0.154 0 0.067 0.019 0.125 0.061 0.166 0.038 0.042 0.093 0.064 0.157 0.064 0.077 0 0.141-0.029 0.192-0.083 0.051-0.058 0.080-0.128 0.080-0.218 0-0.067-0.019-0.125-0.061-0.166-0.038-0.045-0.090-0.064-0.154-0.064zM25.805 21.59h-0.214l0.163-1.197h0.214l-0.013 0.096c0.045-0.045 0.090-0.077 0.128-0.093s0.086-0.026 0.134-0.026c0.115 0 0.208 0.042 0.275 0.128s0.102 0.186 0.102 0.298c0 0.086-0.022 0.17-0.064 0.246-0.045 0.077-0.102 0.138-0.176 0.182s-0.15 0.064-0.227 0.064c-0.054 0-0.102-0.013-0.147-0.038s-0.083-0.061-0.112-0.109l-0.064 0.448zM24.8 20.394h0.221l-0.048 0.346 0.358-0.346h0.275l-0.442 0.419 0.358 0.458h-0.282l-0.246-0.32-0.061 0.051-0.035 0.266h-0.221l0.122-0.874zM23.994 20.998l-0.294-0.912h0.253l0.192 0.662 0.317-0.662h0.234l-0.432 0.848c-0.077 0.154-0.147 0.253-0.208 0.298s-0.131 0.067-0.214 0.067c-0.122 0-0.224-0.058-0.307-0.173l0.166-0.15c0.032 0.042 0.061 0.070 0.083 0.083 0.026 0.013 0.054 0.019 0.086 0.019 0.045 0.003 0.086-0.026 0.125-0.080zM22.477 21.11h0.109c0.102 0 0.15-0.032 0.15-0.099 0-0.074-0.048-0.112-0.144-0.112h-0.086l-0.029 0.211zM22.528 20.749h0.099c0.029 0 0.058-0.010 0.080-0.029 0.026-0.019 0.035-0.045 0.035-0.074 0-0.061-0.038-0.093-0.115-0.093h-0.074l-0.026 0.195zM22.237 21.27l0.118-0.877h0.339c0.086 0 0.154 0.022 0.198 0.064s0.067 0.093 0.067 0.15c0 0.096-0.054 0.16-0.163 0.192 0.115 0.045 0.173 0.122 0.173 0.224 0 0.163-0.115 0.246-0.349 0.246h-0.384zM21.19 20.579c-0.090 0-0.157 0.032-0.202 0.096-0.048 0.064-0.070 0.131-0.070 0.205 0 0.064 0.019 0.118 0.058 0.157 0.038 0.042 0.090 0.061 0.154 0.061 0.090 0 0.16-0.032 0.208-0.093s0.070-0.131 0.070-0.208c0-0.064-0.019-0.115-0.061-0.157-0.038-0.042-0.093-0.061-0.157-0.061zM21.206 20.374c0.077 0 0.147 0.019 0.211 0.054s0.112 0.086 0.15 0.154c0.035 0.067 0.054 0.141 0.054 0.221 0 0.138-0.048 0.253-0.147 0.349-0.096 0.096-0.218 0.144-0.362 0.144-0.125 0-0.224-0.038-0.298-0.112-0.074-0.077-0.112-0.173-0.112-0.294 0-0.147 0.051-0.269 0.15-0.365 0.102-0.102 0.218-0.15 0.352-0.15zM19.92 21.27h-0.221l0.118-0.877h0.221l-0.045 0.317h0.317l0.045-0.317h0.221l-0.118 0.877h-0.221l0.051-0.365h-0.317l-0.051 0.365zM19.357 20.739c-0.016-0.054-0.045-0.093-0.080-0.122-0.038-0.029-0.083-0.042-0.138-0.042-0.051 0-0.099 0.013-0.144 0.042-0.042 0.029-0.074 0.067-0.096 0.118h0.458v0.003zM19.302 21.014l0.189 0.099c-0.042 0.054-0.099 0.099-0.17 0.131s-0.147 0.048-0.234 0.048c-0.134 0-0.24-0.038-0.317-0.112s-0.115-0.176-0.115-0.298c0-0.141 0.048-0.262 0.144-0.362s0.214-0.147 0.349-0.147c0.083 0 0.157 0.019 0.221 0.054s0.115 0.090 0.154 0.157c0.038 0.067 0.054 0.144 0.054 0.224 0 0.026-0.003 0.054-0.006 0.090h-0.701c0.003 0.061 0.022 0.109 0.061 0.147 0.038 0.035 0.090 0.054 0.157 0.054 0.080-0.006 0.15-0.032 0.214-0.086zM18.525 21.27h-0.23l-0.141-0.531-0.288 0.531h-0.23l0.493-0.877h0.141l0.256 0.877zM17.398 20.784c0-0.058-0.019-0.106-0.054-0.147-0.035-0.038-0.086-0.058-0.154-0.058-0.077 0-0.141 0.029-0.195 0.086s-0.080 0.125-0.080 0.202c0 0.067 0.019 0.122 0.058 0.16s0.090 0.058 0.147 0.058c0.074 0 0.138-0.029 0.195-0.086 0.054-0.058 0.083-0.128 0.083-0.214zM17.67 20.035l-0.029 0.202c-0.058 0.010-0.138 0.013-0.237 0.013-0.096 0-0.17 0.003-0.218 0.013s-0.093 0.029-0.134 0.058c-0.042 0.029-0.074 0.064-0.096 0.106-0.019 0.038-0.038 0.096-0.054 0.176 0.086-0.154 0.205-0.227 0.355-0.227 0.099 0 0.182 0.032 0.256 0.099s0.112 0.16 0.112 0.278c0 0.15-0.051 0.275-0.154 0.381s-0.23 0.157-0.378 0.157c-0.083 0-0.157-0.019-0.218-0.061s-0.106-0.090-0.138-0.15c-0.032-0.061-0.045-0.144-0.045-0.253 0-0.144 0.016-0.266 0.051-0.368s0.080-0.186 0.134-0.246c0.054-0.061 0.128-0.106 0.221-0.128 0.090-0.026 0.23-0.038 0.419-0.038 0.054 0 0.102-0.003 0.15-0.010zM16.083 20.579c-0.090 0-0.157 0.032-0.202 0.096-0.048 0.064-0.070 0.131-0.070 0.205 0 0.064 0.019 0.118 0.058 0.157 0.038 0.042 0.090 0.061 0.154 0.061 0.090 0 0.16-0.032 0.208-0.093s0.070-0.131 0.070-0.208c0-0.064-0.019-0.115-0.061-0.157-0.038-0.042-0.093-0.061-0.157-0.061zM16.099 20.374c0.077 0 0.147 0.019 0.211 0.054s0.112 0.086 0.15 0.154c0.035 0.067 0.054 0.141 0.054 0.221 0 0.138-0.048 0.253-0.147 0.349-0.096 0.096-0.218 0.144-0.362 0.144-0.125 0-0.224-0.038-0.298-0.112-0.074-0.077-0.112-0.173-0.112-0.294 0-0.147 0.051-0.269 0.15-0.365 0.102-0.102 0.218-0.15 0.352-0.15zM15.030 20.566c-0.051 0-0.096 0.013-0.138 0.035-0.038 0.022-0.070 0.061-0.099 0.112-0.026 0.051-0.038 0.102-0.038 0.154 0 0.067 0.019 0.125 0.061 0.166 0.038 0.042 0.093 0.064 0.157 0.064 0.077 0 0.141-0.029 0.192-0.083 0.051-0.058 0.080-0.128 0.080-0.218 0-0.067-0.019-0.125-0.061-0.166-0.042-0.045-0.093-0.064-0.154-0.064zM14.669 21.59h-0.214l0.163-1.197h0.214l-0.013 0.096c0.045-0.045 0.090-0.077 0.128-0.093s0.086-0.026 0.134-0.026c0.115 0 0.208 0.042 0.275 0.128s0.102 0.186 0.102 0.298c0 0.086-0.022 0.17-0.064 0.246-0.045 0.077-0.102 0.138-0.176 0.182s-0.15 0.064-0.227 0.064c-0.054 0-0.102-0.013-0.147-0.038s-0.083-0.061-0.112-0.109l-0.064 0.448zM13.821 20.464c0.080-0.061 0.163-0.090 0.259-0.090 0.083 0 0.15 0.019 0.198 0.061 0.051 0.038 0.074 0.093 0.074 0.16 0 0.042-0.010 0.077-0.029 0.112-0.019 0.032-0.061 0.061-0.122 0.090 0.086 0.054 0.131 0.125 0.131 0.218 0 0.083-0.029 0.15-0.090 0.202-0.058 0.051-0.147 0.077-0.262 0.077-0.138 0-0.24-0.032-0.31-0.099l0.144-0.154c0.048 0.038 0.096 0.058 0.144 0.058 0.038 0 0.070-0.010 0.096-0.029s0.038-0.042 0.038-0.064c0-0.022-0.010-0.045-0.029-0.067s-0.045-0.035-0.077-0.035h-0.058l0.022-0.157h0.045c0.038 0 0.067-0.010 0.090-0.029s0.032-0.042 0.032-0.070c0-0.026-0.010-0.045-0.026-0.061s-0.038-0.022-0.064-0.022c-0.038 0-0.086 0.016-0.144 0.051l-0.064-0.15z">
      </path>
    </symbol>
    <symbol id="icon-viber" viewBox="0 0 32 32">
      <path fill="#52648c" style="fill: var(--color2, #52648c); stroke: var(--color1, #243b76)" stroke="#243b76"
        stroke-linejoin="miter" stroke-linecap="butt" stroke-miterlimit="4" stroke-width="1.0667"
        d="M16.89 10.239v0l0.014 0.002c2.185 0.271 3.945 2.228 3.957 4.331l-0.001 0.021-0.001 0.007-0.002 0.026c-0.006 0.080-0.006 0.161-0.001 0.241 0.002 0.060 0.003 0.111-0 0.162-0.004 0.054-0.012 0.089-0.019 0.111-0.001 0.004-0.003 0.007-0.004 0.009-0.007 0.003-0.022 0.008-0.047 0.012v-0l-0.010 0.002c-0.018 0.003-0.038 0.005-0.062 0.005s-0.039-0.002-0.047-0.004c-0.001-0.002-0.003-0.005-0.005-0.009-0.012-0.025-0.025-0.066-0.035-0.127-0.010-0.060-0.014-0.119-0.018-0.186l-0-0.005c-0.003-0.064-0.007-0.161-0.022-0.251-0.187-1.164-0.486-2.057-1.102-2.72s-1.479-1.021-2.615-1.283c-0.081-0.021-0.17-0.033-0.223-0.040-0.006-0.001-0.012-0.002-0.017-0.002-0.128-0.019-0.206-0.032-0.272-0.055-0.038-0.013-0.055-0.025-0.062-0.031-0.008-0.014-0.013-0.030-0.016-0.046-0.004-0.021-0.003-0.043 0.001-0.063l0.003-0.015 0.002-0.015c0.004-0.026 0.011-0.052 0.019-0.074s0.017-0.033 0.021-0.039c0.003-0.003 0.005-0.005 0.012-0.008s0.033-0.013 0.089-0.014c0.093 0.003 0.185 0.014 0.277 0.032l0.012 0.002 0.012 0.002 0.161 0.024zM20.83 15.153c0 0 0-0 0-0.001l-0 0.001zM20.836 15.147c0.001-0.001 0.002-0.001 0.002-0.001l-0.002 0.001zM20.656 15.16c0 0 0.001 0 0.002 0.001-0.002-0-0.002-0.001-0.002-0.001z">
      </path>
      <path fill="none" stroke="#243b76" style="stroke: var(--color1, #243b76)" stroke-linejoin="miter"
        stroke-linecap="butt" stroke-miterlimit="4" stroke-width="1.0667"
        d="M16.329 8.296l0.002 0 0.010 0.001c0.057 0.004 0.141 0.011 0.214 0.022M16.329 8.296l6.647 7.286c-0.011 0.004-0.023 0.006-0.035 0.006l-0.014-0.001h-0.027c-0.041-0.001-0.061-0.007-0.069-0.010-0.002-0.003-0.006-0.010-0.012-0.022-0.014-0.031-0.026-0.080-0.034-0.15s-0.009-0.138-0.011-0.213v-0.002c-0-0.009-0-0.019-0.001-0.030-0.001-0.066-0.002-0.165-0.013-0.251-0.239-1.95-0.799-3.463-1.835-4.564-1.038-1.104-2.49-1.726-4.372-2.025M16.329 8.296c-0.068-0.005-0.129-0.010-0.188-0.020s-0.097-0.024-0.118-0.034c-0.001-0.010-0.002-0.026-0.001-0.048 0.002-0.037 0.007-0.072 0.016-0.103s0.018-0.048 0.024-0.056c0.004-0.005 0.007-0.008 0.017-0.013 0.012-0.005 0.049-0.020 0.131-0.021 0.049 0.001 0.098 0.003 0.147 0.007v0l0.013 0.001c0.003 0 0.007 0 0.010 0.001 0.041 0.003 0.103 0.007 0.157 0.007h0.001M16.329 8.296l0.21-0.28M16.554 8.319c-0-0-0-0-0.001-0l-0.084 0.527 0.085-0.527c-0-0-0-0-0.001-0zM16.539 8.016c0.028-0 0.056-0.002 0.084-0.004l0.004-0c3.423 0.129 6.437 3.369 6.397 6.949-0.002 0.072 0.002 0.148 0.005 0.201l0 0.008c0.006 0.135 0.008 0.229-0.004 0.309-0.008 0.057-0.020 0.081-0.026 0.089M16.539 8.016l6.461 7.551M19.564 24.485l-0.012-0.003c-0.18-0.042-0.422-0.098-0.652-0.2l0.664 0.203zM19.564 24.485v0zM20.6 18.741l-0.312 0.432c0.016 0.011 0.031 0.023 0.047 0.034 0.394 0.285 0.785 0.567 1.15 0.87l0.001 0.001c0.012 0.010 0.024 0.020 0.037 0.030v0.004l0.203 0.16c0.306 0.241 0.55 0.441 0.696 0.686 0.122 0.206 0.193 0.476 0.042 0.914-0.188 0.548-0.6 1.089-1.116 1.494-0.513 0.403-1.070 0.626-1.526 0.632l-0.137-0.034c-0.188-0.044-0.387-0.090-0.568-0.171l-0-0c-2.562-1.139-4.765-2.65-6.552-4.488l-0-0c-1.827-1.877-3.279-4.158-4.314-6.783l-0-0.001c-0.326-0.824-0.323-1.564-0.054-2.168l0-0c0.278-0.624 0.849-1.133 1.715-1.434l0 0 0.011-0.004c0.242-0.090 0.509-0.089 0.751 0.002 0.030 0.011 0.103 0.051 0.221 0.146 0.113 0.091 0.244 0.215 0.388 0.367 0.288 0.304 0.606 0.698 0.903 1.116s0.567 0.851 0.762 1.227c0.208 0.402 0.292 0.666 0.297 0.776l0 0.001c0.027 0.507-0.329 0.786-0.681 1.031l-0 0c-0.366 0.257-0.646 0.589-0.741 1.034-0.091 0.428 0.009 0.867 0.196 1.302l0 0.001c0.743 1.723 2.044 3.023 3.835 3.864 0.244 0.122 0.511 0.19 0.783 0.2l0.009 0h0.009c0.51 0 0.894-0.28 1.155-0.687l0-0c0.37-0.578 0.744-0.769 1.099-0.769 0.29 0 0.65 0.121 1.123 0.462l0.312-0.432M20.6 18.741l-0.311 0.433c-0.086-0.062-0.171-0.123-0.256-0.185l0.313-0.432M20.6 18.741c-0.085-0.061-0.17-0.122-0.255-0.184M20.6 18.741c0.017 0.012 0.034 0.025 0.052 0.037 0.39 0.282 0.794 0.573 1.174 0.888l-4.463-0.658M20.345 18.557c-0.522-0.377-0.992-0.563-1.435-0.563-0.597 0-1.117 0.342-1.548 1.014M17.362 19.009c-0.19 0.297-0.422 0.442-0.706 0.442l0.706-0.442zM16.85 12.429l-0.002 0c-0.11 0.002-0.183 0.008-0.24 0.031-0.022 0.009-0.033 0.017-0.039 0.023-0.005 0.005-0.018 0.019-0.032 0.059-0.019 0.059-0.021 0.094-0.020 0.109 0 0.007 0.001 0.011 0.001 0.011l0 0.001c0.001 0.001 0.001 0.002 0.003 0.003s0.011 0.009 0.029 0.017c0.041 0.019 0.103 0.036 0.201 0.052l0.002 0c0.497 0.082 0.933 0.277 1.255 0.635 0.319 0.355 0.475 0.813 0.524 1.323M16.85 12.429l1.152 2.316M16.85 12.429c0.363-0.009 0.842 0.193 1.283 0.657l0.001 0.001c0.437 0.458 0.657 0.997 0.652 1.416l-0 0.011 0 0.011c0.007 0.228-0.034 0.324-0.052 0.352-0.006 0.010-0.009 0.011-0.011 0.012-0.003 0.002-0.019 0.010-0.056 0.016M16.85 12.429l1.67 0.289c0.508 0.532 0.806 1.2 0.8 1.79 0.018 0.564-0.181 0.876-0.592 0.927M18.533 14.694c0 0 0 0.001 0 0.001l-0.531 0.051M18.533 14.694c0-0 0-0 0-0.001l-0.531 0.052M18.533 14.694c0.010 0.104 0.046 0.163 0.070 0.188 0.020 0.021 0.034 0.024 0.048 0.024h0.011v0c0.002 0 0.004 0 0.006-0M18.002 14.745c0.040 0.41 0.306 0.693 0.648 0.693 0.026 0.001 0.052-0.001 0.077-0.003M18.668 14.905c-0.002 0-0.004 0.001-0.007 0.001 0 0-0 0-0 0l0 0.002 0.066 0.527M18.668 14.905c0.001 0 0.003-0 0.004-0l0.056 0.53M22.999 15.567c-0.007 0.006-0.015 0.010-0.023 0.014l0.023-0.014zM22.828 15.574c0 0 0.001 0 0.002 0.001-0.001-0.001-0.002-0.001-0.002-0.001zM16.026 8.255c0 0-0-0.001-0.001-0.002l0.001 0.002z">
      </path>
      <path fill="none" stroke="#243b76" style="stroke: var(--color1, #243b76)" stroke-linejoin="miter"
        stroke-linecap="butt" stroke-miterlimit="4" stroke-width="1.0667"
        d="M16 0.533c8.542 0 15.467 6.925 15.467 15.467s-6.925 15.467-15.467 15.467c-8.542 0-15.467-6.925-15.467-15.467s6.925-15.467 15.467-15.467z">
      </path>
    </symbol>
    <symbol id="icon-arrow-side" viewBox="0 0 52 32">
      <path fill="none" stroke="#243b76" style="stroke: var(--color1, #243b76)" stroke-linejoin="miter"
        stroke-linecap="butt" stroke-miterlimit="4" stroke-width="2.9091"
        d="M0 15.072h49.455M49.455 15.072l-11.528-12.163M49.455 15.072l-11.528 14.019"></path>
    </symbol>
    <symbol id="icon-facebook" viewBox="0 0 33 32">
      <path fill="#243b76" style="fill: var(--color1, #243b76)"
        d="M19.494 7.019h-2.662c-3.391-0.034-3.824 2.065-3.824 4.336v1.651h-1.497c-0.068-0.009-0.136-0.002-0.201 0.020s-0.123 0.058-0.172 0.107c-0.048 0.048-0.085 0.107-0.107 0.172s-0.029 0.134-0.020 0.201v2.994c-0.009 0.068-0.002 0.137 0.020 0.201s0.058 0.123 0.107 0.172c0.048 0.048 0.107 0.085 0.172 0.107s0.133 0.028 0.201 0.020h1.497v7.484c-0.008 0.068-0.001 0.137 0.021 0.201s0.059 0.123 0.108 0.171c0.048 0.048 0.107 0.085 0.172 0.106s0.134 0.029 0.201 0.020h3.049c0.294 0.034 0.533-0.205 0.439-0.499l0.002-7.484h2.495c0.068 0.009 0.137 0.002 0.201-0.020s0.123-0.058 0.172-0.107c0.048-0.048 0.085-0.107 0.107-0.172s0.029-0.134 0.020-0.201v-2.994c0.009-0.068 0.002-0.137-0.020-0.201s-0.058-0.123-0.107-0.172c-0.048-0.048-0.107-0.085-0.172-0.107s-0.133-0.028-0.201-0.020h-2.498l0.003-1.497c0.097-0.638 0.097-0.534 0.689-0.499h1.785c0.139-0.031 0.286-0.014 0.39-0.115s0.164-0.238 0.129-0.384v-2.994c0.009-0.068 0.003-0.136-0.019-0.201s-0.058-0.123-0.106-0.172c-0.048-0.048-0.107-0.085-0.172-0.107s-0.133-0.029-0.201-0.019zM18.96 9.957l-1.251-0.048c-1.55 0-1.679 0.841-1.679 1.702l-0.004 1.892c-0 0.070 0.014 0.14 0.040 0.204s0.066 0.124 0.116 0.173c0.049 0.050 0.108 0.089 0.173 0.116s0.134 0.041 0.204 0.041h2.437v1.928h-2.435c-0.141 0-0.277 0.056-0.377 0.156s-0.156 0.235-0.157 0.377l-0.001 7.485h-2.020v-7.484c0-0.294-0.201-0.533-0.496-0.533h-1.5v-1.928h1.5c0.070 0 0.139-0.014 0.204-0.040s0.124-0.066 0.173-0.115c0.1-0.101 0.118-0.236 0.118-0.378v-2.15c0-2.237 0.452-3.303 2.826-3.303h2.129v1.906h0.001z">
      </path>
      <path fill="#243b76" style="fill: var(--color1, #243b76)"
        d="M16.001 0c-8.822 0-16.001 7.177-16.001 16s7.179 16 16.001 16c8.822 0 16.001-7.177 16.001-16s-7.179-16-16.001-16zM16.001 30.934c-8.234 0-14.933-6.7-14.933-14.934s6.699-14.934 14.933-14.934c8.235 0 14.933 6.7 14.933 14.934s-6.699 14.934-14.933 14.934z">
      </path>
    </symbol>
    <symbol id="icon-Instagram" viewBox="0 0 32 32">
      <path fill="#243b76" style="fill: var(--color1, #243b76)"
        d="M16 8.667c-1.45 0-2.868 0.43-4.074 1.236s-2.146 1.951-2.701 3.291c-0.555 1.34-0.7 2.815-0.417 4.237s0.981 2.729 2.007 3.755c1.026 1.026 2.332 1.724 3.755 2.007s2.897 0.138 4.237-0.417c1.34-0.555 2.485-1.495 3.291-2.701s1.236-2.624 1.236-4.074c0-1.945-0.773-3.81-2.148-5.185s-3.241-2.148-5.186-2.148zM16 22c-1.187 0-2.347-0.352-3.333-1.011s-1.756-1.596-2.21-2.693-0.573-2.303-0.341-3.467c0.232-1.164 0.803-2.233 1.642-3.072s1.908-1.411 3.072-1.642 2.37-0.113 3.467 0.341c1.096 0.454 2.033 1.223 2.693 2.21s1.011 2.147 1.011 3.333c0 1.591-0.632 3.117-1.757 4.243s-2.651 1.757-4.243 1.757zM23.333 0h-14.667c-2.299 0-4.503 0.913-6.128 2.538s-2.538 3.83-2.538 6.128v14.667c0 1.138 0.224 2.265 0.66 3.317s1.074 2.007 1.879 2.812c1.625 1.625 3.83 2.538 6.128 2.538h14.667c1.138 0 2.265-0.224 3.317-0.66s2.007-1.074 2.812-1.879 1.443-1.76 1.879-2.812c0.436-1.052 0.66-2.178 0.66-3.317v-14.667c0-1.138-0.224-2.265-0.66-3.317s-1.074-2.007-1.879-2.812c-0.805-0.805-1.76-1.443-2.812-1.879s-2.178-0.66-3.317-0.66zM30.667 23.333c0 1.945-0.773 3.81-2.148 5.185s-3.24 2.148-5.185 2.148h-14.667c-1.945 0-3.81-0.773-5.185-2.148s-2.148-3.24-2.148-5.185v-14.667c0-1.945 0.773-3.81 2.148-5.185s3.241-2.148 5.185-2.148h14.667c1.945 0 3.81 0.773 5.185 2.148s2.148 3.241 2.148 5.185v14.667zM26 7.333c0 0.264-0.078 0.521-0.225 0.741s-0.355 0.39-0.598 0.491c-0.244 0.101-0.512 0.127-0.77 0.076s-0.496-0.178-0.683-0.365c-0.186-0.186-0.314-0.424-0.365-0.683s-0.025-0.527 0.076-0.77c0.101-0.244 0.272-0.452 0.491-0.598s0.477-0.225 0.741-0.225c0.354 0 0.693 0.14 0.943 0.391s0.39 0.589 0.39 0.943z">
      </path>
    </symbol>
    <symbol id="icon-telegram" viewBox="0 0 34 32">
      <path fill="#243b76" style="fill: var(--color1, #243b76)"
        d="M25.095 7.793c-0.197-0.163-0.435-0.27-0.688-0.31s-0.512-0.009-0.749 0.087l-16.381 6.613c-0.265 0.109-0.49 0.295-0.646 0.535s-0.236 0.521-0.228 0.808 0.102 0.563 0.271 0.794c0.169 0.231 0.404 0.405 0.674 0.5l3.535 1.227 1.915 6.332c0.004 0.013 0.016 0.021 0.021 0.033 0.020 0.051 0.049 0.097 0.085 0.137 0.055 0.062 0.127 0.107 0.207 0.131 0.009 0.004 0.015 0.012 0.025 0.014h0.005l0.003 0.001c0.071 0.015 0.144 0.011 0.213-0.011 0.007-0.002 0.015-0.002 0.023-0.005 0.066-0.023 0.126-0.061 0.175-0.111 0.005-0.006 0.015-0.007 0.020-0.013l2.755-3.041 4.020 3.113c0.244 0.191 0.545 0.294 0.855 0.294 0.671 0 1.25-0.47 1.388-1.126l2.982-14.645c0.051-0.249 0.033-0.506-0.052-0.746s-0.232-0.451-0.428-0.613v0.001zM13.797 19.249l-0.646 3.142-1.349-4.46 6.688-3.483-4.569 4.57c-0.063 0.063-0.106 0.144-0.124 0.231zM21.696 23.612c-0.017 0.083-0.055 0.16-0.111 0.224s-0.127 0.112-0.206 0.141c-0.078 0.030-0.162 0.039-0.244 0.027s-0.16-0.046-0.226-0.098l-4.355-3.373c-0.091-0.070-0.205-0.104-0.32-0.093s-0.221 0.063-0.298 0.148l-1.917 2.113 0.645-3.133 6.573-6.574c0.077-0.077 0.124-0.179 0.132-0.288s-0.023-0.217-0.087-0.305c-0.064-0.088-0.158-0.15-0.264-0.175s-0.218-0.011-0.315 0.039l-9.475 4.935-3.581-1.245c-0.095-0.031-0.178-0.092-0.237-0.172s-0.092-0.178-0.093-0.278c-0.005-0.101 0.022-0.201 0.077-0.286s0.135-0.151 0.228-0.188l16.378-6.613c0.084-0.036 0.176-0.047 0.266-0.033s0.175 0.053 0.244 0.112c0.069 0.056 0.121 0.13 0.15 0.213s0.035 0.174 0.016 0.26l-2.981 14.641z">
      </path>
      <path fill="none" stroke="#243b76" style="stroke: var(--color1, #243b76)" stroke-linejoin="miter"
        stroke-linecap="butt" stroke-miterlimit="4" stroke-width="1.0667"
        d="M16.002 0.533h1.067c8.542 0 15.467 6.925 15.467 15.467s-6.925 15.467-15.467 15.467h-1.067c-8.542 0-15.467-6.925-15.467-15.467s6.925-15.467 15.467-15.467z">
      </path>
    </symbol>
    <symbol id="icon-ruby" viewBox="0 0 32 32">
      <path style="fill: var(--color1)"
        d="M30.933 30.933v1.067h1.067v-1.067h-1.067zM30.933 1.067h1.067v-1.067h-1.067v1.067zM18.133 1.067v-1.067h-0.442l-0.314 0.311 0.755 0.755zM1.067 18.133l-0.755-0.755-0.311 0.314v0.442h1.067zM1.067 30.933h-1.067v1.067h1.067v-1.067zM9.6 22.4l-0.478 0.954 0.041 0.021 0.043 0.015 0.395-0.99zM9.6 9.6v-1.067c-0.283 0-0.554 0.112-0.754 0.312s-0.312 0.471-0.312 0.754h1.067zM22.4 9.6l0.99-0.397-0.017-0.041-0.019-0.041-0.954 0.478zM32 30.933v-29.867h-2.133v29.867h2.133zM30.933 0h-12.8v2.133h12.8v-2.133zM17.378 0.311l-17.067 17.067 1.51 1.51 17.067-17.067-1.51-1.51zM0 18.133v12.8h2.133v-12.8h-2.133zM1.067 32h29.867v-2.133h-29.867v2.133zM30.178 0.311l-29.867 29.867 1.51 1.51 29.867-29.867-1.51-1.51zM10.667 22.4v-12.8h-2.133v12.8h2.133zM9.6 10.667h12.8v-2.133h-12.8v2.133zM9.203 23.39l21.333 8.533 0.794-1.98-21.333-8.533-0.794 1.98zM21.41 9.997l8.533 21.333 1.98-0.794-8.533-21.333-1.98 0.794zM17.18 1.545l4.267 8.533 1.907-0.956-4.267-8.533-1.907 0.956zM0.589 19.087l8.533 4.267 0.956-1.907-8.533-4.267-0.956 1.907z">
      </path>
    </symbol>
    <symbol id="icon-carbon_delivery" viewBox="0 0 34 32">
      <path style="fill: var(--color1)"
        d="M33.43 7.157l-12.258-6.305c-0.181-0.093-0.384-0.142-0.591-0.142s-0.41 0.049-0.591 0.142l-12.258 6.305c-0.192 0.099-0.352 0.244-0.464 0.421s-0.17 0.378-0.17 0.583c0 0.205 0.059 0.407 0.17 0.583s0.272 0.322 0.464 0.421l11.623 5.979v12.288l-3.722-1.915-1.182 2.007 5.538 2.849c0.181 0.093 0.384 0.142 0.591 0.142s0.41-0.049 0.591-0.142l12.258-6.305c0.192-0.099 0.353-0.244 0.464-0.421s0.171-0.378 0.171-0.583v-14.903c0-0.205-0.059-0.407-0.171-0.583s-0.272-0.322-0.464-0.421zM20.58 3.165l9.715 4.996-9.715 4.996-9.715-4.996 9.715-4.996zM31.613 22.387l-9.807 5.044v-12.288l9.807-5.044v12.288z">
      </path>
      <path style="fill: var(--color1)"
        d="M9.935 15.755h-9.935v-2.271h9.935v2.271zM12.419 24.839h-9.935v-2.271h9.935v2.271zM14.903 20.297h-9.935v-2.271h9.935v2.271z">
      </path>
    </symbol>
    <symbol id="icon-award" viewBox="0 0 32 32">
      <path fill="none" stroke="#fff" style="stroke: var(--color1, #fff)" stroke-linejoin="miter" stroke-linecap="butt"
        stroke-miterlimit="4" stroke-width="1.7778" d="M11.556 15.308l3.275 3.486 5.614-6.349"></path>
      <path fill="none" stroke="#fff" style="stroke: var(--color1, #fff)" stroke-linejoin="miter" stroke-linecap="butt"
        stroke-miterlimit="4" stroke-width="1.7778"
        d="M16 8c4.418 0 8 3.582 8 8s-3.582 8-8 8c-4.418 0-8-3.582-8-8s3.582-8 8-8z"></path>
      <path fill="none" stroke="#fff" style="stroke: var(--color1, #fff)" stroke-linejoin="miter" stroke-linecap="butt"
        stroke-miterlimit="4" stroke-width="1.7778"
        d="M11.707 30.222l-2.236-4.68-4.92-0.826 0.716-5.23-3.488-4.221 3.488-3.303-0.716-5.23 4.92-0.826 2.236-4.129 4.741 2.019 4.115-2.019 2.773 4.955 4.294 0.642-0.805 4.588 3.399 3.945-3.399 3.579 0.805 5.23-4.294 0.826-2.773 4.68-4.741-2.294-4.115 2.294z">
      </path>
    </symbol>
    <symbol id="icon-logo" viewBox="0 0 32 32">
      <path fill="#3b4d7c" style="fill: var(--color2, #3b4d7c)"
        d="M16 0c8.835 0 16 7.165 16 16s-7.165 16-16 16c-8.835 0-16-7.165-16-16s7.165-16 16-16z"></path>
      <path fill="none" stroke="#fff" style="stroke: var(--color1, #fff)" stroke-linejoin="miter" stroke-linecap="butt"
        stroke-miterlimit="10" stroke-width="0.48" d="M1.411 12.016c1.747-6.451 7.642-11.194 14.646-11.194"></path>
      <path fill="none" stroke="#fff" style="stroke: var(--color1, #fff)" stroke-linejoin="miter" stroke-linecap="butt"
        stroke-miterlimit="10" stroke-width="0.48"
        d="M30.672 20.077c-1.782 6.394-7.651 11.088-14.614 11.088-6.979-0.003-12.858-4.714-14.627-11.133"></path>
      <path fill="none" stroke="#fff" style="stroke: var(--color1, #fff)" stroke-linejoin="miter" stroke-linecap="butt"
        stroke-miterlimit="10" stroke-width="0.48" d="M16.058 0.822c7.014 0 12.915 4.758 14.653 11.222"></path>
      <path style="fill: var(--)"
        d="M21.216 18.832c-0.166-0.17-0.304-0.365-0.413-0.579-0.65-1.267-0.25-2.726 0.605-3.846 0.742-0.003 1.491 0 2.237 0-0.602 0.765-0.954 1.962-0.998 2.666-0.038 0.64 0.106 1.2 0.637 1.338 0.56 0.147 1.222-0.115 1.789-0.701 0.643-0.666 0.96-1.402 0.989-2.352 0.019-0.64-0.154-1.27-0.659-1.533-0.016-0.006-0.029-0.016-0.045-0.022-0.227-0.102-0.47-0.106-0.746-0.106-0.013 0-0.026 0-0.042 0-0.899 0-5.078 0-5.078-0.003 0.022-0.051 0.579-1.254 0.64-1.28 1.584 0 3.165 0 4.749 0 0.029 0 0.061 0 0.090 0 0.88 0 1.763 0.214 2.426 0.822 2.003 1.834 0.218 5.382-2.8 6.192-1.107 0.301-2.531 0.272-3.379-0.595zM16.061 16.733l-0.374 1.037 3.523 0.003 0.374-1.037-3.523-0.003zM14.566 15.402h0.41l-0.941 3.83h-0.368l-0.003-0.016-1.059-2.246-0.57 2.234-1.242 0.016 0.938-3.824 1.254-0.016-0.15 0.589 1.059 2.147 0.672-2.714zM9.725 15.414l1.264 0.003-0.96 3.818-1.264-0.003 0.96-3.818zM3.414 13.632l-2.304-0.019 0.614-1.222c1.811 0 3.622 0 5.434 0 0.656 0 1.446 0.051 2.016 0.406 0.835 0.518 0.928 1.395 0.48 2.198-0.874 1.565-3.44 2.688-5.248 2.726l-0.506 1.856-1.766 0.016 1.414-5.194h1.75c-0.211 0.739-0.438 1.562-0.592 2.218 2.768-0.083 3.734-2.154 2.381-2.752-0.672-0.298-1.99-0.25-2.784-0.246l-0.89 0.006v0.006zM29.366 18.582l1.616 0.010-0.147 0.634h-1.094c-0.397 0-0.794 0-1.19 0h-0.608l1.059-4.109 1.226-0.010-0.861 3.475z">
      </path>
      <path style="fill: var(--color1)"
        d="M29.293 20.394h0.214l-0.118 0.877h-0.214l0.118-0.877zM29.437 20.035c0.035 0 0.067 0.013 0.093 0.038s0.038 0.058 0.038 0.093c0 0.035-0.013 0.067-0.038 0.093s-0.058 0.038-0.093 0.038c-0.035 0-0.067-0.013-0.093-0.038s-0.038-0.058-0.038-0.093c0-0.035 0.013-0.067 0.038-0.093s0.058-0.038 0.093-0.038zM28.429 21.27h-0.221l0.118-0.877h0.221l-0.042 0.317h0.317l0.042-0.317h0.221l-0.118 0.877h-0.221l0.048-0.365h-0.317l-0.048 0.365zM28.211 20.032c0.029 0 0.051 0.010 0.070 0.029s0.029 0.042 0.029 0.067c0 0.038-0.013 0.070-0.038 0.096s-0.058 0.038-0.093 0.038c-0.029 0-0.054-0.010-0.074-0.029s-0.029-0.045-0.029-0.074c0-0.035 0.013-0.064 0.038-0.090 0.029-0.026 0.061-0.038 0.096-0.038zM27.856 20.032c0.029 0 0.051 0.010 0.070 0.029s0.029 0.042 0.029 0.067c0 0.038-0.013 0.070-0.038 0.096s-0.058 0.038-0.093 0.038c-0.029 0-0.054-0.010-0.074-0.029s-0.029-0.045-0.029-0.074c0-0.035 0.013-0.064 0.042-0.090 0.026-0.026 0.058-0.038 0.093-0.038zM27.904 20.394h0.214l-0.118 0.877h-0.214l0.118-0.877zM27.162 21.101c0.054 0 0.099-0.013 0.138-0.035s0.074-0.061 0.099-0.112c0.026-0.051 0.042-0.102 0.042-0.154 0-0.070-0.019-0.125-0.061-0.166s-0.093-0.064-0.16-0.064c-0.077 0-0.141 0.029-0.195 0.083-0.054 0.058-0.080 0.128-0.080 0.218 0 0.067 0.019 0.125 0.061 0.166 0.042 0.045 0.093 0.064 0.157 0.064zM27.485 20.394h0.218l-0.122 0.877h-0.214l0.013-0.096c-0.048 0.045-0.090 0.074-0.131 0.090s-0.086 0.026-0.138 0.026c-0.115 0-0.208-0.042-0.278-0.128-0.067-0.086-0.102-0.186-0.102-0.298 0-0.086 0.022-0.17 0.067-0.246s0.102-0.138 0.176-0.182c0.074-0.045 0.15-0.067 0.23-0.067 0.054 0 0.106 0.013 0.15 0.038s0.083 0.061 0.112 0.109l0.019-0.122zM26.166 20.566c-0.051 0-0.096 0.013-0.138 0.035-0.038 0.022-0.070 0.061-0.099 0.112-0.026 0.051-0.038 0.102-0.038 0.154 0 0.067 0.019 0.125 0.061 0.166 0.038 0.042 0.093 0.064 0.157 0.064 0.077 0 0.141-0.029 0.192-0.083 0.051-0.058 0.080-0.128 0.080-0.218 0-0.067-0.019-0.125-0.061-0.166-0.038-0.045-0.090-0.064-0.154-0.064zM25.805 21.59h-0.214l0.163-1.197h0.214l-0.013 0.096c0.045-0.045 0.090-0.077 0.128-0.093s0.086-0.026 0.134-0.026c0.115 0 0.208 0.042 0.275 0.128s0.102 0.186 0.102 0.298c0 0.086-0.022 0.17-0.064 0.246-0.045 0.077-0.102 0.138-0.176 0.182s-0.15 0.064-0.227 0.064c-0.054 0-0.102-0.013-0.147-0.038s-0.083-0.061-0.112-0.109l-0.064 0.448zM24.8 20.394h0.221l-0.048 0.346 0.358-0.346h0.275l-0.442 0.419 0.358 0.458h-0.282l-0.246-0.32-0.061 0.051-0.035 0.266h-0.221l0.122-0.874zM23.994 20.998l-0.294-0.912h0.253l0.192 0.662 0.317-0.662h0.234l-0.432 0.848c-0.077 0.154-0.147 0.253-0.208 0.298s-0.131 0.067-0.214 0.067c-0.122 0-0.224-0.058-0.307-0.173l0.166-0.15c0.032 0.042 0.061 0.070 0.083 0.083 0.026 0.013 0.054 0.019 0.086 0.019 0.045 0.003 0.086-0.026 0.125-0.080zM22.477 21.11h0.109c0.102 0 0.15-0.032 0.15-0.099 0-0.074-0.048-0.112-0.144-0.112h-0.086l-0.029 0.211zM22.528 20.749h0.099c0.029 0 0.058-0.010 0.080-0.029 0.026-0.019 0.035-0.045 0.035-0.074 0-0.061-0.038-0.093-0.115-0.093h-0.074l-0.026 0.195zM22.237 21.27l0.118-0.877h0.339c0.086 0 0.154 0.022 0.198 0.064s0.067 0.093 0.067 0.15c0 0.096-0.054 0.16-0.163 0.192 0.115 0.045 0.173 0.122 0.173 0.224 0 0.163-0.115 0.246-0.349 0.246h-0.384zM21.19 20.579c-0.090 0-0.157 0.032-0.202 0.096-0.048 0.064-0.070 0.131-0.070 0.205 0 0.064 0.019 0.118 0.058 0.157 0.038 0.042 0.090 0.061 0.154 0.061 0.090 0 0.16-0.032 0.208-0.093s0.070-0.131 0.070-0.208c0-0.064-0.019-0.115-0.061-0.157-0.038-0.042-0.093-0.061-0.157-0.061zM21.206 20.374c0.077 0 0.147 0.019 0.211 0.054s0.112 0.086 0.15 0.154c0.035 0.067 0.054 0.141 0.054 0.221 0 0.138-0.048 0.253-0.147 0.349-0.096 0.096-0.218 0.144-0.362 0.144-0.125 0-0.224-0.038-0.298-0.112-0.074-0.077-0.112-0.173-0.112-0.294 0-0.147 0.051-0.269 0.15-0.365 0.102-0.102 0.218-0.15 0.352-0.15zM19.92 21.27h-0.221l0.118-0.877h0.221l-0.045 0.317h0.317l0.045-0.317h0.221l-0.118 0.877h-0.221l0.051-0.365h-0.317l-0.051 0.365zM19.357 20.739c-0.016-0.054-0.045-0.093-0.080-0.122-0.038-0.029-0.083-0.042-0.138-0.042-0.051 0-0.099 0.013-0.144 0.042-0.042 0.029-0.074 0.067-0.096 0.118h0.458v0.003zM19.302 21.014l0.189 0.099c-0.042 0.054-0.099 0.099-0.17 0.131s-0.147 0.048-0.234 0.048c-0.134 0-0.24-0.038-0.317-0.112s-0.115-0.176-0.115-0.298c0-0.141 0.048-0.262 0.144-0.362s0.214-0.147 0.349-0.147c0.083 0 0.157 0.019 0.221 0.054s0.115 0.090 0.154 0.157c0.038 0.067 0.054 0.144 0.054 0.224 0 0.026-0.003 0.054-0.006 0.090h-0.701c0.003 0.061 0.022 0.109 0.061 0.147 0.038 0.035 0.090 0.054 0.157 0.054 0.080-0.006 0.15-0.032 0.214-0.086zM18.525 21.27h-0.23l-0.141-0.531-0.288 0.531h-0.23l0.493-0.877h0.141l0.256 0.877zM17.398 20.784c0-0.058-0.019-0.106-0.054-0.147-0.035-0.038-0.086-0.058-0.154-0.058-0.077 0-0.141 0.029-0.195 0.086s-0.080 0.125-0.080 0.202c0 0.067 0.019 0.122 0.058 0.16s0.090 0.058 0.147 0.058c0.074 0 0.138-0.029 0.195-0.086 0.054-0.058 0.083-0.128 0.083-0.214zM17.67 20.035l-0.029 0.202c-0.058 0.010-0.138 0.013-0.237 0.013-0.096 0-0.17 0.003-0.218 0.013s-0.093 0.029-0.134 0.058c-0.042 0.029-0.074 0.064-0.096 0.106-0.019 0.038-0.038 0.096-0.054 0.176 0.086-0.154 0.205-0.227 0.355-0.227 0.099 0 0.182 0.032 0.256 0.099s0.112 0.16 0.112 0.278c0 0.15-0.051 0.275-0.154 0.381s-0.23 0.157-0.378 0.157c-0.083 0-0.157-0.019-0.218-0.061s-0.106-0.090-0.138-0.15c-0.032-0.061-0.045-0.144-0.045-0.253 0-0.144 0.016-0.266 0.051-0.368s0.080-0.186 0.134-0.246c0.054-0.061 0.128-0.106 0.221-0.128 0.090-0.026 0.23-0.038 0.419-0.038 0.054 0 0.102-0.003 0.15-0.010zM16.083 20.579c-0.090 0-0.157 0.032-0.202 0.096-0.048 0.064-0.070 0.131-0.070 0.205 0 0.064 0.019 0.118 0.058 0.157 0.038 0.042 0.090 0.061 0.154 0.061 0.090 0 0.16-0.032 0.208-0.093s0.070-0.131 0.070-0.208c0-0.064-0.019-0.115-0.061-0.157-0.038-0.042-0.093-0.061-0.157-0.061zM16.099 20.374c0.077 0 0.147 0.019 0.211 0.054s0.112 0.086 0.15 0.154c0.035 0.067 0.054 0.141 0.054 0.221 0 0.138-0.048 0.253-0.147 0.349-0.096 0.096-0.218 0.144-0.362 0.144-0.125 0-0.224-0.038-0.298-0.112-0.074-0.077-0.112-0.173-0.112-0.294 0-0.147 0.051-0.269 0.15-0.365 0.102-0.102 0.218-0.15 0.352-0.15zM15.030 20.566c-0.051 0-0.096 0.013-0.138 0.035-0.038 0.022-0.070 0.061-0.099 0.112-0.026 0.051-0.038 0.102-0.038 0.154 0 0.067 0.019 0.125 0.061 0.166 0.038 0.042 0.093 0.064 0.157 0.064 0.077 0 0.141-0.029 0.192-0.083 0.051-0.058 0.080-0.128 0.080-0.218 0-0.067-0.019-0.125-0.061-0.166-0.042-0.045-0.093-0.064-0.154-0.064zM14.669 21.59h-0.214l0.163-1.197h0.214l-0.013 0.096c0.045-0.045 0.090-0.077 0.128-0.093s0.086-0.026 0.134-0.026c0.115 0 0.208 0.042 0.275 0.128s0.102 0.186 0.102 0.298c0 0.086-0.022 0.17-0.064 0.246-0.045 0.077-0.102 0.138-0.176 0.182s-0.15 0.064-0.227 0.064c-0.054 0-0.102-0.013-0.147-0.038s-0.083-0.061-0.112-0.109l-0.064 0.448zM13.821 20.464c0.080-0.061 0.163-0.090 0.259-0.090 0.083 0 0.15 0.019 0.198 0.061 0.051 0.038 0.074 0.093 0.074 0.16 0 0.042-0.010 0.077-0.029 0.112-0.019 0.032-0.061 0.061-0.122 0.090 0.086 0.054 0.131 0.125 0.131 0.218 0 0.083-0.029 0.15-0.090 0.202-0.058 0.051-0.147 0.077-0.262 0.077-0.138 0-0.24-0.032-0.31-0.099l0.144-0.154c0.048 0.038 0.096 0.058 0.144 0.058 0.038 0 0.070-0.010 0.096-0.029s0.038-0.042 0.038-0.064c0-0.022-0.010-0.045-0.029-0.067s-0.045-0.035-0.077-0.035h-0.058l0.022-0.157h0.045c0.038 0 0.067-0.010 0.090-0.029s0.032-0.042 0.032-0.070c0-0.026-0.010-0.045-0.026-0.061s-0.038-0.022-0.064-0.022c-0.038 0-0.086 0.016-0.144 0.051l-0.064-0.15z">
      </path>
    </symbol>
    <symbol id="icon-tools" viewBox="0 0 32 32">
      <path style="fill: var(--color1)"
        d="M3.852 0.756l-0.667 0.611-1.666 1.618-0.629 0.648 0.481 0.755 2.482 4.028 0.333 0.575h3.483l4.741 4.568c-4.236 4.131-9.625 9.381-9.815 9.566-1.857 1.802-1.861 4.755 0.036 6.473 1.852 1.775 4.871 1.821 6.631 0l0.036-0.037 7.296-7.12 7.334 7.156 0.11 0.072c1.861 1.703 4.82 1.726 6.556-0.072v-0.035h0.036c1.816-1.803 1.835-4.734-0.036-6.439l-0.038-0.035-6.184-5.97c4.161-0.377 7.42-3.79 7.481-7.912h0.037c0.005-0.023 0-0.049 0-0.072v-0.036c0.116-1.33-0.18-2.603-0.889-3.704l-0.813-1.221-5.519 5.358-1.666-1.691 5.63-5.466-1.63-0.647c-1.040-0.444-2.162-0.677-3.297-0.685-4.556 0-8.296 3.632-8.296 8.056 0 0.481 0.107 0.899 0.185 1.33-0.518 0.504-0.907 0.917-1.518 1.511l-4.704-4.568v-3.417l-0.593-0.323-4.148-2.41-0.777-0.467zM23.704 3.345c0.166 0 0.282 0.094 0.444 0.108l-4.481 4.351 0.814 0.827 3.334 3.344 0.814 0.827 4.704-4.567c0.024 0.265 0.218 0.458 0.185 0.755v0.108c0 3.169-2.662 5.754-5.926 5.754-0.435 0-0.962-0.099-1.555-0.216l-0.631-0.107-0.444 0.432-13.369 13.018h-0.038v0.037c-0.841 0.894-2.315 0.916-3.296-0.037v-0.036h-0.038c-0.921-0.817-0.943-2.247 0.038-3.2 0.449-0.437 9.147-8.955 13.407-13.090l0.482-0.467-0.186-0.648c-0.112-0.472-0.174-0.954-0.185-1.438 0-3.169 2.662-5.754 5.926-5.754zM4.222 3.633l2.778 1.655v1.151l-0.258 0.251h-1.185l-1.704-2.696 0.37-0.36zM21.555 17.622l7.372 7.121v0.036h0.036c0.922 0.817 0.945 2.248-0.036 3.2h-0.038v0.037c-0.841 0.894-2.315 0.916-3.296-0.037l-7.334-7.156 3.296-3.202z">
      </path>
    </symbol>
    <symbol id="icon-telegram-white" viewBox="0 0 32 32">
      <path fill="#fff" style="fill: var(--color1, #fff)"
        d="M24.283 8.058c-0.191-0.158-0.421-0.262-0.666-0.3s-0.495-0.009-0.725 0.084l-15.853 6.4c-0.256 0.105-0.474 0.286-0.625 0.518s-0.228 0.505-0.22 0.782 0.099 0.545 0.262 0.769c0.163 0.224 0.391 0.392 0.652 0.483l3.421 1.187 1.854 6.128c0.004 0.012 0.015 0.020 0.020 0.032 0.019 0.049 0.047 0.094 0.082 0.133 0.054 0.060 0.123 0.104 0.2 0.127 0.009 0.003 0.015 0.011 0.024 0.013h0.005l0.003 0.001c0.068 0.015 0.14 0.011 0.206-0.011 0.007-0.002 0.014-0.002 0.022-0.004 0.064-0.022 0.122-0.059 0.169-0.108 0.005-0.006 0.014-0.007 0.020-0.012l2.666-2.943 3.89 3.013c0.236 0.185 0.527 0.285 0.827 0.285 0.649 0 1.209-0.455 1.343-1.089l2.886-14.172c0.049-0.241 0.032-0.49-0.050-0.722s-0.225-0.437-0.414-0.593v0.001zM13.35 19.144l-0.626 3.041-1.305-4.316 6.472-3.371-4.421 4.422c-0.061 0.061-0.103 0.139-0.12 0.224zM20.994 23.366c-0.017 0.080-0.054 0.155-0.107 0.217s-0.123 0.109-0.2 0.136c-0.075 0.029-0.157 0.038-0.236 0.026s-0.155-0.045-0.218-0.095l-4.214-3.264c-0.088-0.068-0.199-0.1-0.309-0.090s-0.214 0.061-0.289 0.144l-1.855 2.045 0.625-3.032 6.361-6.362c0.074-0.075 0.12-0.174 0.128-0.279s-0.022-0.21-0.084-0.295c-0.062-0.085-0.153-0.145-0.256-0.169s-0.211-0.011-0.304 0.038l-9.169 4.776-3.466-1.205c-0.092-0.030-0.172-0.089-0.229-0.167s-0.089-0.172-0.090-0.269c-0.004-0.098 0.022-0.194 0.075-0.276s0.13-0.146 0.221-0.182l15.85-6.4c0.081-0.034 0.17-0.046 0.258-0.032s0.169 0.051 0.236 0.108c0.067 0.054 0.117 0.125 0.145 0.206s0.034 0.168 0.016 0.252l-2.885 14.169z">
      </path>
      <path fill="none" stroke="#fff" style="stroke: var(--color1, #fff)" stroke-linejoin="miter" stroke-linecap="butt"
        stroke-miterlimit="4" stroke-width="1.0323"
        d="M15.484 1.032h1.032c8.266 0 14.968 6.701 14.968 14.968s-6.701 14.968-14.968 14.968h-1.032c-8.266 0-14.968-6.701-14.968-14.968s6.701-14.968 14.968-14.968z">
      </path>
    </symbol>
    <symbol id="icon-viber-white" viewBox="0 0 31 32">
      <path fill="#fff" style="fill: var(--color1, #fff)"
        d="M20.703 14.672c0.019-2.328-1.902-4.463-4.282-4.758l-0.156-0.023c-0.119-0.024-0.24-0.037-0.362-0.041-0.488 0-0.618 0.353-0.652 0.563-0.019 0.088-0.021 0.178-0.005 0.266s0.050 0.172 0.099 0.247c0.162 0.226 0.446 0.265 0.674 0.3 0.067 0.009 0.131 0.017 0.183 0.031 2.139 0.492 2.86 1.267 3.211 3.457 0.009 0.055 0.012 0.12 0.016 0.19 0.016 0.261 0.048 0.805 0.616 0.805 0.047 0 0.097-0.003 0.15-0.012 0.529-0.083 0.512-0.581 0.504-0.819-0.004-0.058-0.004-0.116 0-0.173 0.002-0.010 0.003-0.021 0.003-0.031l0.002-0.002z">
      </path>
      <path fill="#fff" style="fill: var(--color1, #fff)"
        d="M15.766 9.059c0.062 0.005 0.125 0.009 0.173 0.017 3.511 0.559 5.128 2.275 5.576 5.93 0.008 0.062 0.008 0.137 0.009 0.219 0.005 0.286 0.014 0.879 0.632 0.891h0.019c0.085 0.004 0.17-0.009 0.249-0.040s0.151-0.078 0.21-0.139c0.192-0.207 0.18-0.515 0.169-0.765-0.003-0.059-0.006-0.117-0.005-0.167 0.044-3.737-3.090-7.127-6.707-7.252l-0.044 0.002c-0.014 0.002-0.028 0.003-0.042 0.003-0.036 0-0.081-0.003-0.128-0.006-0.062-0.006-0.125-0.009-0.187-0.009-0.576 0-0.685 0.421-0.699 0.674-0.031 0.582 0.513 0.624 0.776 0.643zM21.344 19.728c-0.075-0.059-0.149-0.119-0.223-0.18-0.384-0.318-0.793-0.612-1.186-0.896-0.082-0.059-0.165-0.118-0.247-0.178-0.506-0.365-0.96-0.545-1.389-0.545-0.577 0-1.081 0.331-1.498 0.982-0.184 0.287-0.409 0.428-0.683 0.428-0.192-0.007-0.38-0.055-0.551-0.142-1.631-0.765-2.796-1.935-3.463-3.48-0.321-0.749-0.219-1.236 0.35-1.634 0.321-0.225 0.921-0.644 0.879-1.448-0.047-0.913-1.999-3.659-2.821-3.971-0.351-0.132-0.738-0.133-1.089-0.003-0.944 0.328-1.623 0.905-1.962 1.665-0.328 0.737-0.312 1.599 0.044 2.498 1.025 2.6 2.466 4.866 4.285 6.735 1.779 1.831 3.967 3.329 6.501 4.455 0.228 0.101 0.468 0.156 0.643 0.197l0.148 0.037c0.020 0.006 0.041 0.009 0.062 0.009h0.020c1.192 0 2.623-1.123 3.063-2.406 0.385-1.123-0.318-1.678-0.883-2.122v-0.002zM16.293 12.029c-0.203 0.005-0.629 0.016-0.779 0.462-0.069 0.209-0.061 0.39 0.025 0.538 0.126 0.218 0.37 0.286 0.59 0.321 0.799 0.133 1.211 0.59 1.292 1.436 0.039 0.396 0.296 0.671 0.627 0.671 0.025 0.001 0.050-0.001 0.075-0.003 0.398-0.050 0.59-0.351 0.573-0.897 0.006-0.571-0.283-1.217-0.774-1.732-0.493-0.518-1.088-0.81-1.629-0.796z">
      </path>
      <path fill="none" stroke="#fff" style="stroke: var(--color1, #fff)" stroke-linejoin="miter" stroke-linecap="butt"
        stroke-miterlimit="4" stroke-width="1.0323"
        d="M15.484 1.032c8.266 0 14.968 6.701 14.968 14.968s-6.701 14.968-14.968 14.968c-8.266 0-14.968-6.701-14.968-14.968s6.701-14.968 14.968-14.968z">
      </path>
    </symbol>
    <symbol id="icon-map" viewBox="0 0 23 32">
      <path fill="#fff" style="fill: var(--color1, #fff)" opacity="0.6"
        d="M19.364 17.746c-0.998 1.972-2.351 3.937-3.733 5.701-1.312 1.663-2.714 3.257-4.202 4.773-1.487-1.516-2.89-3.11-4.202-4.773-1.383-1.764-2.735-3.729-3.733-5.701-1.010-1.993-1.589-3.859-1.589-5.46 0-2.463 1.003-4.825 2.789-6.566s4.208-2.72 6.734-2.72c2.526 0 4.948 0.978 6.734 2.72s2.789 4.103 2.789 6.566c0 1.601-0.581 3.467-1.589 5.46zM11.429 30.857c0 0 11.429-10.56 11.429-18.571 0-2.955-1.204-5.79-3.347-7.879s-5.050-3.264-8.081-3.264c-3.031 0-5.938 1.174-8.081 3.264s-3.347 4.924-3.347 7.879c0 8.012 11.429 18.571 11.429 18.571z">
      </path>
      <path fill="#fff" style="fill: var(--color1, #fff)" opacity="0.6"
        d="M11.429 16c-1.010 0-1.979-0.391-2.694-1.088s-1.116-1.641-1.116-2.626c0-0.985 0.401-1.93 1.116-2.626s1.683-1.088 2.694-1.088c1.010 0 1.979 0.391 2.694 1.088s1.116 1.641 1.116 2.626c0 0.985-0.401 1.93-1.116 2.626s-1.683 1.088-2.694 1.088zM11.429 17.857c1.516 0 2.969-0.587 4.041-1.632s1.674-2.462 1.674-3.94c0-1.478-0.602-2.895-1.674-3.94s-2.525-1.632-4.041-1.632c-1.516 0-2.969 0.587-4.041 1.632s-1.674 2.462-1.674 3.94c0 1.478 0.602 2.895 1.674 3.94s2.525 1.632 4.041 1.632z">
      </path>
    </symbol>
    <symbol id="icon-arrow-bottom" viewBox="0 0 32 32">
      <path
        d="M31.574 7.699c-0.568-0.568-1.489-0.568-2.057 0l-13.517 13.517-13.517-13.517c-0.568-0.568-1.489-0.568-2.057 0s-0.568 1.489 0 2.057l14.546 14.545c0.273 0.273 0.643 0.426 1.028 0.426s0.756-0.153 1.028-0.426l14.545-14.545c0.568-0.568 0.568-1.489 0-2.057z">
      </path>
    </symbol>
    <symbol id="icon-home" viewBox="0 0 29 32">
      <path
        d="M14.43 1.571c-0.191-0.191-0.454-0.309-0.745-0.309s-0.555 0.118-0.745 0.309l-12.632 12.632c-0.19 0.19-0.308 0.454-0.308 0.744 0 0.001 0 0.001 0 0.002v-0 14.737c0 0.581 0.471 1.053 1.053 1.053v0h9.474c0.581 0 1.053-0.471 1.053-1.053v0-8.421h4.211v8.421c0 0.581 0.471 1.053 1.053 1.053v0h9.474c0.581 0 1.053-0.471 1.053-1.053v0-14.737c0-0 0-0.001 0-0.001 0-0.291-0.118-0.554-0.308-0.745v0l-2.85-2.848v-6.932c0-0 0-0.001 0-0.002 0-0.581-0.471-1.053-1.053-1.053h-2.105c-0.581 0-1.053 0.471-1.053 1.053v0 2.722l-5.57-5.571zM2.105 28.633v-13.25l11.579-11.577 11.579 11.577v13.25h-7.368v-8.421c0-0.581-0.471-1.053-1.053-1.053v0h-6.316c-0.581 0-1.053 0.471-1.053 1.053v0 8.421h-7.368z">
      </path>
    </symbol>
  </defs>
</svg>