<svg aria-hidden="true" style="position: absolute; width: 0; height: 0; overflow: hidden;" version="1.1" xmlns="http://www.w3.org/2000/svg" xmlns:xlink="http://www.w3.org/1999/xlink">
<defs>
<symbol id="icon-ruby" viewBox="0 0 32 32">
<path fill="#fff" style="fill: var(--color1, #fff)" d="M30.933 30.933v1.067h1.067v-1.067h-1.067zM30.933 1.067h1.067v-1.067h-1.067v1.067zM18.133 1.067v-1.067h-0.442l-0.314 0.311 0.755 0.755zM1.067 18.133l-0.755-0.755-0.311 0.314v0.442h1.067zM1.067 30.933h-1.067v1.067h1.067v-1.067zM9.6 22.4l-0.478 0.954 0.041 0.021 0.043 0.015 0.395-0.99zM9.6 9.6v-1.067c-0.283 0-0.554 0.112-0.754 0.312s-0.312 0.471-0.312 0.754h1.067zM22.4 9.6l0.99-0.397-0.017-0.041-0.019-0.041-0.954 0.478zM32 30.933v-29.867h-2.133v29.867h2.133zM30.933 0h-12.8v2.133h12.8v-2.133zM17.378 0.311l-17.067 17.067 1.51 1.51 17.067-17.067-1.51-1.51zM0 18.133v12.8h2.133v-12.8h-2.133zM1.067 32h29.867v-2.133h-29.867v2.133zM30.178 0.311l-29.867 29.867 1.51 1.51 29.867-29.867-1.51-1.51zM10.667 22.4v-12.8h-2.133v12.8h2.133zM9.6 10.667h12.8v-2.133h-12.8v2.133zM9.203 23.39l21.333 8.533 0.794-1.98-21.333-8.533-0.794 1.98zM21.41 9.997l8.533 21.333 1.98-0.794-8.533-21.333-1.98 0.794zM17.18 1.545l4.267 8.533 1.907-0.956-4.267-8.533-1.907 0.956zM0.589 19.087l8.533 4.267 0.956-1.907-8.533-4.267-0.956 1.907z"></path>
</symbol>
<symbol id="icon-carbon_delivery" viewBox="0 0 34 32">
<path fill="#fff" style="fill: var(--color1, #fff)" d="M33.43 7.157l-12.258-6.305c-0.181-0.093-0.384-0.142-0.591-0.142s-0.41 0.049-0.591 0.142l-12.258 6.305c-0.192 0.099-0.352 0.244-0.464 0.421s-0.17 0.378-0.17 0.583c0 0.205 0.059 0.407 0.17 0.583s0.272 0.322 0.464 0.421l11.623 5.979v12.288l-3.722-1.915-1.182 2.007 5.538 2.849c0.181 0.093 0.384 0.142 0.591 0.142s0.41-0.049 0.591-0.142l12.258-6.305c0.192-0.099 0.353-0.244 0.464-0.421s0.171-0.378 0.171-0.583v-14.903c0-0.205-0.059-0.407-0.171-0.583s-0.272-0.322-0.464-0.421zM20.58 3.165l9.715 4.996-9.715 4.996-9.715-4.996 9.715-4.996zM31.613 22.387l-9.807 5.044v-12.288l9.807-5.044v12.288z"></path>
<path fill="#fff" style="fill: var(--color1, #fff)" d="M9.935 15.755h-9.935v-2.271h9.935v2.271zM12.419 24.839h-9.935v-2.271h9.935v2.271zM14.903 20.297h-9.935v-2.271h9.935v2.271z"></path>
</symbol>
<symbol id="icon-award" viewBox="0 0 32 32">
<path fill="none" stroke="#fff" style="stroke: var(--color1, #fff)" stroke-linejoin="miter" stroke-linecap="butt" stroke-miterlimit="4" stroke-width="1.7778" d="M11.556 15.308l3.275 3.486 5.614-6.349"></path>
<path fill="none" stroke="#fff" style="stroke: var(--color1, #fff)" stroke-linejoin="miter" stroke-linecap="butt" stroke-miterlimit="4" stroke-width="1.7778" d="M16 8c4.418 0 8 3.582 8 8s-3.582 8-8 8c-4.418 0-8-3.582-8-8s3.582-8 8-8z"></path>
<path fill="none" stroke="#fff" style="stroke: var(--color1, #fff)" stroke-linejoin="miter" stroke-linecap="butt" stroke-miterlimit="4" stroke-width="1.7778" d="M11.707 30.222l-2.236-4.68-4.92-0.826 0.716-5.23-3.488-4.221 3.488-3.303-0.716-5.23 4.92-0.826 2.236-4.129 4.741 2.019 4.115-2.019 2.773 4.955 4.294 0.642-0.805 4.588 3.399 3.945-3.399 3.579 0.805 5.23-4.294 0.826-2.773 4.68-4.741-2.294-4.115 2.294z"></path>
</symbol>
<symbol id="icon-logo" viewBox="0 0 32 32">
<path fill="#3b4d7c" style="fill: var(--color2, #3b4d7c)" d="M16 0c8.835 0 16 7.165 16 16s-7.165 16-16 16c-8.835 0-16-7.165-16-16s7.165-16 16-16z"></path>
<path fill="none" stroke="#fff" style="stroke: var(--color1, #fff)" stroke-linejoin="miter" stroke-linecap="butt" stroke-miterlimit="10" stroke-width="0.48" d="M1.411 12.016c1.747-6.451 7.642-11.194 14.646-11.194"></path>
<path fill="none" stroke="#fff" style="stroke: var(--color1, #fff)" stroke-linejoin="miter" stroke-linecap="butt" stroke-miterlimit="10" stroke-width="0.48" d="M30.672 20.077c-1.782 6.394-7.651 11.088-14.614 11.088-6.979-0.003-12.858-4.714-14.627-11.133"></path>
<path fill="none" stroke="#fff" style="stroke: var(--color1, #fff)" stroke-linejoin="miter" stroke-linecap="butt" stroke-miterlimit="10" stroke-width="0.48" d="M16.058 0.822c7.014 0 12.915 4.758 14.653 11.222"></path>
<path fill="#fff" style="fill: var(--color1, #fff)" d="M21.216 18.832c-0.166-0.17-0.304-0.365-0.413-0.579-0.65-1.267-0.25-2.726 0.605-3.846 0.742-0.003 1.491 0 2.237 0-0.602 0.765-0.954 1.962-0.998 2.666-0.038 0.64 0.106 1.2 0.637 1.338 0.56 0.147 1.222-0.115 1.789-0.701 0.643-0.666 0.96-1.402 0.989-2.352 0.019-0.64-0.154-1.27-0.659-1.533-0.016-0.006-0.029-0.016-0.045-0.022-0.227-0.102-0.47-0.106-0.746-0.106-0.013 0-0.026 0-0.042 0-0.899 0-5.078 0-5.078-0.003 0.022-0.051 0.579-1.254 0.64-1.28 1.584 0 3.165 0 4.749 0 0.029 0 0.061 0 0.090 0 0.88 0 1.763 0.214 2.426 0.822 2.003 1.834 0.218 5.382-2.8 6.192-1.107 0.301-2.531 0.272-3.379-0.595zM16.061 16.733l-0.374 1.037 3.523 0.003 0.374-1.037-3.523-0.003zM14.566 15.402h0.41l-0.941 3.83h-0.368l-0.003-0.016-1.059-2.246-0.57 2.234-1.242 0.016 0.938-3.824 1.254-0.016-0.15 0.589 1.059 2.147 0.672-2.714zM9.725 15.414l1.264 0.003-0.96 3.818-1.264-0.003 0.96-3.818zM3.414 13.632l-2.304-0.019 0.614-1.222c1.811 0 3.622 0 5.434 0 0.656 0 1.446 0.051 2.016 0.406 0.835 0.518 0.928 1.395 0.48 2.198-0.874 1.565-3.44 2.688-5.248 2.726l-0.506 1.856-1.766 0.016 1.414-5.194h1.75c-0.211 0.739-0.438 1.562-0.592 2.218 2.768-0.083 3.734-2.154 2.381-2.752-0.672-0.298-1.99-0.25-2.784-0.246l-0.89 0.006v0.006zM29.366 18.582l1.616 0.010-0.147 0.634h-1.094c-0.397 0-0.794 0-1.19 0h-0.608l1.059-4.109 1.226-0.010-0.861 3.475z"></path>
<path fill="#fff" style="fill: var(--color1, #fff)" d="M29.293 20.394h0.214l-0.118 0.877h-0.214l0.118-0.877zM29.437 20.035c0.035 0 0.067 0.013 0.093 0.038s0.038 0.058 0.038 0.093c0 0.035-0.013 0.067-0.038 0.093s-0.058 0.038-0.093 0.038c-0.035 0-0.067-0.013-0.093-0.038s-0.038-0.058-0.038-0.093c0-0.035 0.013-0.067 0.038-0.093s0.058-0.038 0.093-0.038zM28.429 21.27h-0.221l0.118-0.877h0.221l-0.042 0.317h0.317l0.042-0.317h0.221l-0.118 0.877h-0.221l0.048-0.365h-0.317l-0.048 0.365zM28.211 20.032c0.029 0 0.051 0.010 0.070 0.029s0.029 0.042 0.029 0.067c0 0.038-0.013 0.070-0.038 0.096s-0.058 0.038-0.093 0.038c-0.029 0-0.054-0.010-0.074-0.029s-0.029-0.045-0.029-0.074c0-0.035 0.013-0.064 0.038-0.090 0.029-0.026 0.061-0.038 0.096-0.038zM27.856 20.032c0.029 0 0.051 0.010 0.070 0.029s0.029 0.042 0.029 0.067c0 0.038-0.013 0.070-0.038 0.096s-0.058 0.038-0.093 0.038c-0.029 0-0.054-0.010-0.074-0.029s-0.029-0.045-0.029-0.074c0-0.035 0.013-0.064 0.042-0.090 0.026-0.026 0.058-0.038 0.093-0.038zM27.904 20.394h0.214l-0.118 0.877h-0.214l0.118-0.877zM27.162 21.101c0.054 0 0.099-0.013 0.138-0.035s0.074-0.061 0.099-0.112c0.026-0.051 0.042-0.102 0.042-0.154 0-0.070-0.019-0.125-0.061-0.166s-0.093-0.064-0.16-0.064c-0.077 0-0.141 0.029-0.195 0.083-0.054 0.058-0.080 0.128-0.080 0.218 0 0.067 0.019 0.125 0.061 0.166 0.042 0.045 0.093 0.064 0.157 0.064zM27.485 20.394h0.218l-0.122 0.877h-0.214l0.013-0.096c-0.048 0.045-0.090 0.074-0.131 0.090s-0.086 0.026-0.138 0.026c-0.115 0-0.208-0.042-0.278-0.128-0.067-0.086-0.102-0.186-0.102-0.298 0-0.086 0.022-0.17 0.067-0.246s0.102-0.138 0.176-0.182c0.074-0.045 0.15-0.067 0.23-0.067 0.054 0 0.106 0.013 0.15 0.038s0.083 0.061 0.112 0.109l0.019-0.122zM26.166 20.566c-0.051 0-0.096 0.013-0.138 0.035-0.038 0.022-0.070 0.061-0.099 0.112-0.026 0.051-0.038 0.102-0.038 0.154 0 0.067 0.019 0.125 0.061 0.166 0.038 0.042 0.093 0.064 0.157 0.064 0.077 0 0.141-0.029 0.192-0.083 0.051-0.058 0.080-0.128 0.080-0.218 0-0.067-0.019-0.125-0.061-0.166-0.038-0.045-0.090-0.064-0.154-0.064zM25.805 21.59h-0.214l0.163-1.197h0.214l-0.013 0.096c0.045-0.045 0.090-0.077 0.128-0.093s0.086-0.026 0.134-0.026c0.115 0 0.208 0.042 0.275 0.128s0.102 0.186 0.102 0.298c0 0.086-0.022 0.17-0.064 0.246-0.045 0.077-0.102 0.138-0.176 0.182s-0.15 0.064-0.227 0.064c-0.054 0-0.102-0.013-0.147-0.038s-0.083-0.061-0.112-0.109l-0.064 0.448zM24.8 20.394h0.221l-0.048 0.346 0.358-0.346h0.275l-0.442 0.419 0.358 0.458h-0.282l-0.246-0.32-0.061 0.051-0.035 0.266h-0.221l0.122-0.874zM23.994 20.998l-0.294-0.912h0.253l0.192 0.662 0.317-0.662h0.234l-0.432 0.848c-0.077 0.154-0.147 0.253-0.208 0.298s-0.131 0.067-0.214 0.067c-0.122 0-0.224-0.058-0.307-0.173l0.166-0.15c0.032 0.042 0.061 0.070 0.083 0.083 0.026 0.013 0.054 0.019 0.086 0.019 0.045 0.003 0.086-0.026 0.125-0.080zM22.477 21.11h0.109c0.102 0 0.15-0.032 0.15-0.099 0-0.074-0.048-0.112-0.144-0.112h-0.086l-0.029 0.211zM22.528 20.749h0.099c0.029 0 0.058-0.010 0.080-0.029 0.026-0.019 0.035-0.045 0.035-0.074 0-0.061-0.038-0.093-0.115-0.093h-0.074l-0.026 0.195zM22.237 21.27l0.118-0.877h0.339c0.086 0 0.154 0.022 0.198 0.064s0.067 0.093 0.067 0.15c0 0.096-0.054 0.16-0.163 0.192 0.115 0.045 0.173 0.122 0.173 0.224 0 0.163-0.115 0.246-0.349 0.246h-0.384zM21.19 20.579c-0.090 0-0.157 0.032-0.202 0.096-0.048 0.064-0.070 0.131-0.070 0.205 0 0.064 0.019 0.118 0.058 0.157 0.038 0.042 0.090 0.061 0.154 0.061 0.090 0 0.16-0.032 0.208-0.093s0.070-0.131 0.070-0.208c0-0.064-0.019-0.115-0.061-0.157-0.038-0.042-0.093-0.061-0.157-0.061zM21.206 20.374c0.077 0 0.147 0.019 0.211 0.054s0.112 0.086 0.15 0.154c0.035 0.067 0.054 0.141 0.054 0.221 0 0.138-0.048 0.253-0.147 0.349-0.096 0.096-0.218 0.144-0.362 0.144-0.125 0-0.224-0.038-0.298-0.112-0.074-0.077-0.112-0.173-0.112-0.294 0-0.147 0.051-0.269 0.15-0.365 0.102-0.102 0.218-0.15 0.352-0.15zM19.92 21.27h-0.221l0.118-0.877h0.221l-0.045 0.317h0.317l0.045-0.317h0.221l-0.118 0.877h-0.221l0.051-0.365h-0.317l-0.051 0.365zM19.357 20.739c-0.016-0.054-0.045-0.093-0.080-0.122-0.038-0.029-0.083-0.042-0.138-0.042-0.051 0-0.099 0.013-0.144 0.042-0.042 0.029-0.074 0.067-0.096 0.118h0.458v0.003zM19.302 21.014l0.189 0.099c-0.042 0.054-0.099 0.099-0.17 0.131s-0.147 0.048-0.234 0.048c-0.134 0-0.24-0.038-0.317-0.112s-0.115-0.176-0.115-0.298c0-0.141 0.048-0.262 0.144-0.362s0.214-0.147 0.349-0.147c0.083 0 0.157 0.019 0.221 0.054s0.115 0.090 0.154 0.157c0.038 0.067 0.054 0.144 0.054 0.224 0 0.026-0.003 0.054-0.006 0.090h-0.701c0.003 0.061 0.022 0.109 0.061 0.147 0.038 0.035 0.090 0.054 0.157 0.054 0.080-0.006 0.15-0.032 0.214-0.086zM18.525 21.27h-0.23l-0.141-0.531-0.288 0.531h-0.23l0.493-0.877h0.141l0.256 0.877zM17.398 20.784c0-0.058-0.019-0.106-0.054-0.147-0.035-0.038-0.086-0.058-0.154-0.058-0.077 0-0.141 0.029-0.195 0.086s-0.080 0.125-0.080 0.202c0 0.067 0.019 0.122 0.058 0.16s0.090 0.058 0.147 0.058c0.074 0 0.138-0.029 0.195-0.086 0.054-0.058 0.083-0.128 0.083-0.214zM17.67 20.035l-0.029 0.202c-0.058 0.010-0.138 0.013-0.237 0.013-0.096 0-0.17 0.003-0.218 0.013s-0.093 0.029-0.134 0.058c-0.042 0.029-0.074 0.064-0.096 0.106-0.019 0.038-0.038 0.096-0.054 0.176 0.086-0.154 0.205-0.227 0.355-0.227 0.099 0 0.182 0.032 0.256 0.099s0.112 0.16 0.112 0.278c0 0.15-0.051 0.275-0.154 0.381s-0.23 0.157-0.378 0.157c-0.083 0-0.157-0.019-0.218-0.061s-0.106-0.090-0.138-0.15c-0.032-0.061-0.045-0.144-0.045-0.253 0-0.144 0.016-0.266 0.051-0.368s0.080-0.186 0.134-0.246c0.054-0.061 0.128-0.106 0.221-0.128 0.090-0.026 0.23-0.038 0.419-0.038 0.054 0 0.102-0.003 0.15-0.010zM16.083 20.579c-0.090 0-0.157 0.032-0.202 0.096-0.048 0.064-0.070 0.131-0.070 0.205 0 0.064 0.019 0.118 0.058 0.157 0.038 0.042 0.090 0.061 0.154 0.061 0.090 0 0.16-0.032 0.208-0.093s0.070-0.131 0.070-0.208c0-0.064-0.019-0.115-0.061-0.157-0.038-0.042-0.093-0.061-0.157-0.061zM16.099 20.374c0.077 0 0.147 0.019 0.211 0.054s0.112 0.086 0.15 0.154c0.035 0.067 0.054 0.141 0.054 0.221 0 0.138-0.048 0.253-0.147 0.349-0.096 0.096-0.218 0.144-0.362 0.144-0.125 0-0.224-0.038-0.298-0.112-0.074-0.077-0.112-0.173-0.112-0.294 0-0.147 0.051-0.269 0.15-0.365 0.102-0.102 0.218-0.15 0.352-0.15zM15.030 20.566c-0.051 0-0.096 0.013-0.138 0.035-0.038 0.022-0.070 0.061-0.099 0.112-0.026 0.051-0.038 0.102-0.038 0.154 0 0.067 0.019 0.125 0.061 0.166 0.038 0.042 0.093 0.064 0.157 0.064 0.077 0 0.141-0.029 0.192-0.083 0.051-0.058 0.080-0.128 0.080-0.218 0-0.067-0.019-0.125-0.061-0.166-0.042-0.045-0.093-0.064-0.154-0.064zM14.669 21.59h-0.214l0.163-1.197h0.214l-0.013 0.096c0.045-0.045 0.090-0.077 0.128-0.093s0.086-0.026 0.134-0.026c0.115 0 0.208 0.042 0.275 0.128s0.102 0.186 0.102 0.298c0 0.086-0.022 0.17-0.064 0.246-0.045 0.077-0.102 0.138-0.176 0.182s-0.15 0.064-0.227 0.064c-0.054 0-0.102-0.013-0.147-0.038s-0.083-0.061-0.112-0.109l-0.064 0.448zM13.821 20.464c0.080-0.061 0.163-0.090 0.259-0.090 0.083 0 0.15 0.019 0.198 0.061 0.051 0.038 0.074 0.093 0.074 0.16 0 0.042-0.010 0.077-0.029 0.112-0.019 0.032-0.061 0.061-0.122 0.090 0.086 0.054 0.131 0.125 0.131 0.218 0 0.083-0.029 0.15-0.090 0.202-0.058 0.051-0.147 0.077-0.262 0.077-0.138 0-0.24-0.032-0.31-0.099l0.144-0.154c0.048 0.038 0.096 0.058 0.144 0.058 0.038 0 0.070-0.010 0.096-0.029s0.038-0.042 0.038-0.064c0-0.022-0.010-0.045-0.029-0.067s-0.045-0.035-0.077-0.035h-0.058l0.022-0.157h0.045c0.038 0 0.067-0.010 0.090-0.029s0.032-0.042 0.032-0.070c0-0.026-0.010-0.045-0.026-0.061s-0.038-0.022-0.064-0.022c-0.038 0-0.086 0.016-0.144 0.051l-0.064-0.15z"></path>
</symbol>
<symbol id="icon-tools" viewBox="0 0 32 32">
<path fill="#fff" style="fill: var(--color1, #fff)" d="M3.852 0.756l-0.667 0.611-1.666 1.618-0.629 0.648 0.481 0.755 2.482 4.028 0.333 0.575h3.483l4.741 4.568c-4.236 4.131-9.625 9.381-9.815 9.566-1.857 1.802-1.861 4.755 0.036 6.473 1.852 1.775 4.871 1.821 6.631 0l0.036-0.037 7.296-7.12 7.334 7.156 0.11 0.072c1.861 1.703 4.82 1.726 6.556-0.072v-0.035h0.036c1.816-1.803 1.835-4.734-0.036-6.439l-0.038-0.035-6.184-5.97c4.161-0.377 7.42-3.79 7.481-7.912h0.037c0.005-0.023 0-0.049 0-0.072v-0.036c0.116-1.33-0.18-2.603-0.889-3.704l-0.813-1.221-5.519 5.358-1.666-1.691 5.63-5.466-1.63-0.647c-1.040-0.444-2.162-0.677-3.297-0.685-4.556 0-8.296 3.632-8.296 8.056 0 0.481 0.107 0.899 0.185 1.33-0.518 0.504-0.907 0.917-1.518 1.511l-4.704-4.568v-3.417l-0.593-0.323-4.148-2.41-0.777-0.467zM23.704 3.345c0.166 0 0.282 0.094 0.444 0.108l-4.481 4.351 0.814 0.827 3.334 3.344 0.814 0.827 4.704-4.567c0.024 0.265 0.218 0.458 0.185 0.755v0.108c0 3.169-2.662 5.754-5.926 5.754-0.435 0-0.962-0.099-1.555-0.216l-0.631-0.107-0.444 0.432-13.369 13.018h-0.038v0.037c-0.841 0.894-2.315 0.916-3.296-0.037v-0.036h-0.038c-0.921-0.817-0.943-2.247 0.038-3.2 0.449-0.437 9.147-8.955 13.407-13.090l0.482-0.467-0.186-0.648c-0.112-0.472-0.174-0.954-0.185-1.438 0-3.169 2.662-5.754 5.926-5.754zM4.222 3.633l2.778 1.655v1.151l-0.258 0.251h-1.185l-1.704-2.696 0.37-0.36zM21.555 17.622l7.372 7.121v0.036h0.036c0.922 0.817 0.945 2.248-0.036 3.2h-0.038v0.037c-0.841 0.894-2.315 0.916-3.296-0.037l-7.334-7.156 3.296-3.202z"></path>
</symbol>
</defs>
</svg>
